<mxfile host="app.diagrams.net" modified="2022-10-30T06:35:55.180Z" agent="5.0 (Windows NT 10.0; Win64; x64) AppleWebKit/537.36 (KHTML, like Gecko) Chrome/108.0.0.0 Safari/537.36" etag="Qpqba6-8all9RcNX2GhX" version="20.5.1" type="github">
  <diagram id="gl9k3j8Ewpy9DPjFpO6i" name="第 1 页">
    <mxGraphModel dx="675" dy="688" grid="1" gridSize="10" guides="1" tooltips="1" connect="1" arrows="1" fold="1" page="1" pageScale="1" pageWidth="827" pageHeight="1169" math="0" shadow="0">
      <root>
        <mxCell id="0" />
        <mxCell id="1" parent="0" />
        <mxCell id="yaoMZKG-VxOtJUJC3bOf-25" style="edgeStyle=orthogonalEdgeStyle;rounded=0;orthogonalLoop=1;jettySize=auto;html=1;exitX=0.5;exitY=0;exitDx=0;exitDy=0;exitPerimeter=0;strokeWidth=2;entryX=0.5;entryY=1;entryDx=0;entryDy=0;entryPerimeter=0;" parent="1" source="yaoMZKG-VxOtJUJC3bOf-3" target="yaoMZKG-VxOtJUJC3bOf-5" edge="1">
          <mxGeometry relative="1" as="geometry">
            <Array as="points">
              <mxPoint x="310" y="550" />
              <mxPoint x="310" y="430" />
            </Array>
          </mxGeometry>
        </mxCell>
        <mxCell id="yaoMZKG-VxOtJUJC3bOf-3" value="&lt;b&gt;&lt;font style=&quot;font-size: 15px;&quot;&gt;16路POE交换机&lt;/font&gt;&lt;/b&gt;" style="shape=mxgraph.cisco.switches.voice_switch;sketch=0;html=1;pointerEvents=1;dashed=0;fillColor=#036897;strokeColor=#ffffff;strokeWidth=2;verticalLabelPosition=bottom;verticalAlign=top;align=center;outlineConnect=0;" parent="1" vertex="1">
          <mxGeometry x="195" y="550" width="225" height="60" as="geometry" />
        </mxCell>
        <mxCell id="yaoMZKG-VxOtJUJC3bOf-5" value="&lt;b&gt;&lt;font color=&quot;#000099&quot; style=&quot;font-size: 15px;&quot;&gt;海康32路NVR&lt;/font&gt;&lt;/b&gt;" style="shape=mxgraph.cisco.storage.fc_storage;sketch=0;html=1;pointerEvents=1;dashed=0;fillColor=#036897;strokeColor=#ffffff;strokeWidth=2;verticalLabelPosition=bottom;verticalAlign=top;align=center;outlineConnect=0;" parent="1" vertex="1">
          <mxGeometry x="230" y="390" width="160" height="90" as="geometry" />
        </mxCell>
        <mxCell id="yaoMZKG-VxOtJUJC3bOf-7" value="" style="shape=image;verticalLabelPosition=bottom;labelBackgroundColor=default;verticalAlign=top;aspect=fixed;imageAspect=0;image=data:image/png,iVBORw0KGgoAAAANSUhEUgAAAMgAAADICAYAAACtWK6eAAAAAXNSR0IArs4c6QAAFnJJREFUeF7tnQnUdVVZx/+KIuJAToUj5gCmhPOAM6moabhSE01WairOE4lWamiaA2QWgjnkhBoOQYoWaKWEmjiQioqKkmSQJpRKDmiErd/77fN1v/vd6exn7332Pud51jrr3Pe9Z+/z7P8+/3v28AyXkYsj4AgsReAyjo0j4AgsR8AJ4k+HI7ACASeIPx6OgBPEnwFHIA4Bf4PE4ealJoKAE2QiHe3NjEPACRKHm5eaCAJOkIl0tDczDgEnSBxuXmoiCDhBJtLR3sw4BJwgcbh5qYkg4ASZSEd7M+MQcILE4ealJoKAE2QiHe3NjEPACRKHm5eaCAJOkIl0tDczDgEnSBxuXmoiCDhB8nf05SVx7BrO3d/L/neppP+ZO3664H/dNZfkb8J07+AE2azvf07SdSVdW9Iekvi7Oy/73H2/2R3ir4Ig31txfH/uu/+U9O+Szpfk5FqDuxNk24PfHdeb+Tz7/yvFP79Vl/yPGbJ0pOnOEIjPF1bdgszKTYUgPy9pn5lj75nPmSFuvvofSfqqpLPDmc/d8YPmWzexN8hNJe23gAxXG3tHDtQ+3jCzhOHzFySdN5A+yW/b8huE+cAdJN0+HHxmPuAyPALMcz4n6fMz5zOHV6u/Bq0Q5CoLyMB8waUdBH62gDSn1q5+zQS5l6R7S7qPpNvWDqTrF4UAy9cflPQhSadJqu4tUxNBbhUIcQ9JHLw1XKaFwLmBLB+XxHHO0M0fkiDXmCPEzYcGw+9fHQKfCkQ5JRCnuIKlCcLE+r6S7hfOPqku3uXN3vCLkj4QDt4uRaQEQfYKZOiIsXuRlvlNxozA6TNkYaUsm+QiCLvQvz7ztrhcthZ4xVNH4B8kvV/SCTn2X1IT5GaSHhOOa02957z9RRFg7+U4SW8N+y9Jbp6KIGzWdcTYLYlmXokjEI9AR5QPx1exraSVIL8SiHGIVREv7whkQIBJPWR5T2zdsQS5i6TDJT0o9sYTLcducufbMevjMf+/7m9gWuQ3MutbMvt5l4niuq7Zn5D0ujD8WnftDt/HEOQpko7pdZdxXMwY9zuSLgjn7vMPJS06sIKd///FmaFgeIthJgdL6LPnRZ+vL4kDkk1B3ijpcX0a2ocgV5d0tKRH9rlBA9deFHZs2bXl+NYcCToi/G8DbYlV8RcCUTrCLDrH1l1bOSyOmRJ8ZhPFNiXIgcFmZpM6a7wGs+yOAP8yR4hJOwT16KybSMKdYNG5RzXVXPpcSUeu02YTgpwk6dfWVVTJ94zdZ02sO5Pr0Tv2DIz/LGn2DcalLRiYYsJy/1XYrSPIOyUdPDD4y27/7TkyQIyzKtV1qmpBkvmjNixeIukFy5RaRZBXSjqsotZ8VtInJX1M0kclfbMi3VyVzRHoCHO3YGlRw4YyIySWhHeSZQR5WpiQb97stFcyL2ASdcYMKb6b9hZeWyUI3C5YdWOrd88BdUIPnrcdZBFBGJP97QCK8nY4OZg1Y+Y85lWjAeBt4pbXkcTm8wHh+MWCWn9ZEk56rGJul3mC8Lr7p7BSUUK3jhRMlvjs4gjMIsDQpzv2LAANRo8HrSLIkyUdm1kRiAAheFs4KTKDPZLqrzpDFAiT02Xi0bM77vNvkI9kGgeyD8GK2LudFCN5ZIdrBsE6urfKyiXaSBXhAMO8LZklCBMkvkwprDhBDA5MNVwcgZQIPFDSoRn26bAxZP9vB4IwtGKIZRWCKh8fSMEwysURyI1AaqKcKOkhswRhcv4lSdY16RcFcmDv4uIIlEYgJVHuzn5bN8RKMTlniW6HJbLS6Pj9HIGAwO9KepkRjS3L344gr5f0eEOFD7M4pRju60UdgWUIMDfBByRWMFu6RUcQHN+3z9x71gi5ntCzjF/uCJRAAFMpTKZi5CfkgOkIQi4IhkgxctcQ3CumrJdxBHIicGfjs7n1BiF3BolUYoWJvftUxKLn5XIjwPYCzn4xchAE2T+Yl8RUQJl1JvOx9Xo5RyAFApbN72fxcBOu500GTZwgBvC8aHYELAQ5hof7hZKOMKjpBDGA50WzI2AhyMk83H+4yqNqA/WdIBuA5JcMhoCFIKfycONy+DyD+k4QA3heNDsCZoKw48jOY6w4QWKR83IlEDAT5BWSnmPQ1AliAM+LZkfATJCjJD3boKYTxACeF82OgJkg1uglTpDlfXzZEFuX+LqrDvKndN9TGy4DfQ5i/rosRsBMkFdJeqYB3TEThLZhKdAde2CfE+LeLvo8/12pVBDEAP5+z4MYw90xZoKZCfJnkp4+IYIQqJloGTeYefCvOUcECMH/OKYgmApxzJKGz7P/Iw7ZN0J0+pYwMRPk1ZKeamhxjW8Q/JYhAceNZj7zN9+5xCNwXiAKZCHOMefu4LvaxEyQ10h6kqFVjJ+HimHFA3/rcJBnneDK/G8q4fwN3ZalKLGRIcvXQljYLk4yfw8lZoK81ujPQQiWHxdo/X6SIAGE6M6M+V3qR4BcKV0g8dkzPhe5xUwQqzchiVqYIKYU8lOQxYrjToEUnj0pJcJ11PWVEAbqtGBRzt+pxUyQv5D0WINWJF8hyYxFeCtAhjuGg6GSy/QQIH4aZCFl2qfDcYkRBjNBMHXH5D1W+LXvOzlj4vwASXgjQoq9Ym/u5UaNAM5OpweivDcyvbOZIG+R9CgDzDcOqxnrqrhuIAXE4PAh0zrE/Pt5BAiqDlH+uocXq5kgbws522K745ckLRs7so/QEYJzzpiqsfp7ufYQYH8GkkCWdZkIzAR5h6TfNGB0S0lnzpVnDsHu/CNCplVD9V7UEViJAEvJEOXNkv51wZVmghAm9OGGTrj9TMbQKwVikNLqCoY6vagj0BcBEixBEja+z50pbCbIuyQR+C1WWH0ipwibjS8NdkqxdXk5R8CKAJvWEOWPAlHMBHmPpIcatGIFDGJc21CHF3UEciDAAtQNDSk9tlxuT5D04BzaeZ2OQOMIbBGECQ75EFwcAUdgRwS2CEKiEDL2uDgCjsACgpAfmj0KF0fAEVhAEDZacuR6c7AdgdYR2BpikXGWJO4ujoAjsOAN8iFJ93FkHAFHYCcEtt4gluQ5jqkjMGYEtghi2WkcMzjeNkfgFAhiteZ1GB2BsSJwLAR5vqQXj7WFjbQL+yG8MjmIcYWXJseVG9F/rGoeBkEwdcfk3aUMArgG/J0k9p8gBOnv8JxbJBCkIwv59lhMObCMmn4XLExSpGBzJFcjwNvhr0hKH4hxthGwq4WMxPeSdJAkPDVd8iCwLwTZU9K38tQ/6VovCmbX+PzPO5SlAoYErFhT/7akvVNV6vVsR2D3Liri30viF8nFjsC3Q85HiHGOvbqNasBRDZJAFiLEuNgROFXSAR1BHifpDfY6J18D/gcvmvNoKw3Kc0NCJOKVucQj8BRJr+kIwi/QF0LYzvgqp1sSF0+IAUFqkFsEkhxSgzIN6sC8EQfAC2YDT+Oi+PsNNmZolWt4ayzD4OCQoBXCuGyOwImSHsLlswTZN7xFNq/Gr3yGpKMrh+Hmkt4tyUmyeUf9VthA34EgFH+5JMawLusRwMmMvYwWxEmyeS8R8IEFjy2Zz+3BxO5j/muzFk1+jc9ae1VdFzhJ1vcHsYHBaXsw9kXJb5jYYZ/lshiBK0q6uFFw6HzeeuRQcdkZgf1DLODt3yzLDvVOSUzwXHZEgL2iDzcOCtEu/7LxNuRQn1XIF85XvIwgN5N0nCSiJrpsQ4CIfZZcjjXh+KeSWGBw2YYAb9WFgUtW5Re8ejCVwN5n6vL+YPc0FhzY98JRjtQTU5djJD1tGQibJOC0ZqBqvQPYQCXqy7+13pA5/RkuYmI0VWEz8HckkeV5qWxCEApPeRNxy+RgpE/RVIdaZwRLg7U/EJsShOfjtmGP5DdG+rAsataXJd2m4VWrdV3FahYZnLAKnor8saTDN21sH4J0dbIrOxWSPEfSUZuC2eh1mBcxQpiCLFypSjHEmq+D5bAjRo7oN8PbY5m331iaz4SdtwimRmMWvDh7e2PGvEE6EPllffaIEe39a9MwFmQDe1XD+q9T/bPhx27ddTt9byEIlX1xxGYps5mzegPbWAHml59pTOc+6kbbzVkJMtah1icl3alPD4zgWmzLSMg6NjHtYVkJgm3Pl8aGaFgCfMUI27WqSa+TdOgI2xz99gALK0Gog/yEGHmNSSA+S7xTkgdK4td2bEJQEkIrRUkKgrCuzI7kWIQ34thXdJb11c/G0omhHbhCmyyXUxDkniG+71iw3YpmMZbG9GwH5heX7Vmm5sv/RhJvxmhJQRCMGse0VzBlglwiaZfop6m+gi+zxllIQRBgOW9EEf6mTJCfSrp8fc95tEaE1T0+unSiSTr3H1MatykT5CeSdrU8UJWVZS5pWmVN9QZhSRS7pTHIlAnyY0m7jaETJV2aYriYiiCPlPT2kQA7ZYL8SBI+92OQz6UIw5qKIPtJ+vwYUJVUkiC7B0/Fu0jaRxKuzix6sKvN0IAd/fcVDC7+A0kYL45BCDxCfCuTpCIISoxlDb0EQcjzQewl3JkhyTphA++9ISj2umst3//3iJL2JAnql5IgY0kGmpMg1w9ztadGPsUnSTpS0scjy68rRjyoq667qJHvsSv7ilXXlAR5nqSXWBWqoHwugpDohtU+hqNWeWymt8n3JO1hVa6C8l9LlS8lJUHuEcbvFeBjUiEHQZj48mt2A5NmOxbGF+eVCeujqv+SRAar1gXDyyemaERKgrA8CMCtr4LkIEiu+dlhiR2dLpR0jRQP1sB14BJO2juzpCQIyhCAixA5LUtqguS0dmbfgvA9n0gE+AWSrpmorqGqYSXuOpJYcDBLaoL8QUgkY1ZswApSEuRPJD0rc1sIhZoqfR5m4a1HOGEh40GpME9NkPtKOiWVcgPVk4ogJd1YnyCJAH9WIb8iaadbFlYIj03VgNQEQS/SJ7Dx1aqkIkhJDz0Cod0uAeCE/yf1WKvCKhzObsmyNucgCJEIiXfaqqQgSMm3R4dzirfI+WH83mrfvVESCWmTSQ6CYCpBPFsmSi1KCoIQBX5lzNcMwETFfZrTg/jD18ugW6kqWSBirymZ5CAIyrXshpuCIEPlV2GfxRJkm2B57Pa3KNGxr1Y1NhdBhhhipOrUFAQZasONMP6W4S0+3HulArJwPc/PEUI1F0HAho2arVS6jYmVIJiU4GE5hLCsbAmg8Q1JNxxC8QT3zBKJJidBsFTFVLs1sRJkyCAW5Gx/jAHwcyTdyFB+qKJ/LunJOW6ekyDo+8GYgME5GtqjTitBWEV5Q4/7pbzUFEVQEkZ+N0mpUIG6SKh6h7AwlPx2uQnyMEnvSq513gqtBMH1eKiojCSEwdckVs6WdNPYwgOVI+g2NmlZJDdBUPofJd09i/Z5KrUS5MGSTsij2tpa+TF6+Nqrll+AxTGeja0IG4MEGf96LoVLEORRkhgbtyJWggzpfmwdixNuFbffVsQc92pdQ0sQBB0+1VBKaStBMPcn+MEQQqYoljtjBT94VoNaEOzGeHtkXTEsRZBHh5TSLQBvJQhtZNPqVgM09lclnWy4b0v5XnI4jO0EXSmCcOM3S4IotUsKggyRPZbNSauz05mSfrn2Dgo53u9dQs+SBGED6iMNbESlIMgQ8653SDrE+NAQuimFz7xRjbXFIQdBQrJLSYLQmBaGWikIgsk4Kc1KGmyaEsWEJ22ooWGfBx0//GK5MUsTpIWhVgqC0M6S6emsG4TdA/rPKaIR9nnae17LIgJbBgwni8gQBKl9qJWKICXfIineHjxwvPUwNK1VGEIylCwmQxCExtFQQkPWKKkIQtuwrj06cyNfLQn/kxRS83J8slA+fYAaiiDo+FJJv9dH2ULXpiQIKvOLR56KHMJOcso4VsQCxq6pNkGvAyVdVFqxIQlCW4k3mywCRSLwUhMEtdibuF8i/WarubUkopinEsIH1Zb+mqQ+kAOTpeIyNEFIsEgUlL2Lt3z5DXMQhLulnLRjVMgPizn27BwMOWN4xXbxMwdwX96u69AEQRH8iAk4V4vkIkgqkhwnidA2SQKjzYFeW0Satw69uVwDQeijw0PU8hpIkpMgtI/YYQT57humh0Sp2Fm9NiNIH5V014z196maTUuGVt/pUyj1tbUQhHaxGhObFiAlLrkJgq6kGCBCO16XeCCuEpZemavxls2dpKgW1wQCT7B0nbu9a5+bmgiCsjX4sWOwx7CPCB8lhP0SJtvYUREXF2tgYuRyfFUSJuilBFOgdYQtocv+kk4vcaN196iNIOhbw0TxNEmkc5iS4NOdLGSnAbgDakqjUSNBwLaG6BpW5yPDM1K86I1zeuX1aM39a4vtXCtBwLSGnN1ER2SZccyCB2HJYdwyLK0xvbL0Uc0EocE1hMI8PqQwIDXA2ATyE/RgaCni/BTTyNoJQpvIf8G4dEjBkYgcjDXt11jw2EXSCyQdYakkUdniBoh99G6BILSHtX+ilw8tLw8P1iVDK2K4PyYv7KcMnaICO7KHlnJ8isWrFYLQvqNKOsqsAJQVLuYmJ8aCPlA5oraT7SpbDKke7cIxizfHWT3KDHJpSwQBoBcbo3akBJl1eix13y6JX8NahXzhhCPFm/NaFSjJD8vjSzo9WdrcGkFoK0OtIytKeM9CAjvdWOxaIopY+nFRWZZMMWiEGFdIXXlkfbg4MJdrRlokCODeMYT3rG0zjwh/HVEYiv2w8JMAKbqjphi7uMgyvMPQsilplSCAvGt4kzyjUsRx7sG/AgtZgnh/OrGemKjgHovR423C55JBIjZtDpYRkANvxeakZYJ0YBNihyFX7emLibaI/wabcpw5SJpJXm9M1zlz4CB0lXBcOZyx0WJDj4M5BecW8pm/KZCjuCdgKiaOgSBgccuw/Npiwp5UfVlTPczL+NGyZLuqoj1jIUgH5qFhlavVPHtVPBRGJSAF5LDkSjSqkK742AgCMrjxslKCv4VLOQTIssteFefRyBgJ0nXOweFtsu9oeqvOhoxmOLUI3jEThPYSEodVLjamalzhqfOR30wrFhQYTnGcv1mR9q4aO0G6HmFJlA1GJ0qaZxTbOFykqzcVsTZ3KgRxoliflG3lMf3njcHexiRkagSZJwrLwj5HWf2oXxpiBZBGryZTmiIEnSpBZsEl6SZm15CF3XmXbQgQsZFkpATSSB2grhmMnSD/31XYLkEUjpojnOd8uNjt70hxUs4btVK3E2RxT+FURL5xMhm1kHHJ8rx9N3htkrGJIdS5lsrGVtYJsr5HidHUkeVu6y9v4gribeHKDCk4QxKXBQg4Qfo9FqRI5q2Cuyom93v1Kz7Y1ReGQGxnBFIQYtRlAwScIBuAtOISMsLeWRJvGdIG7GOrLllpdrchAab2kILwpaxGufREwAnSE7A1l+PSygSfNHO8XTh3x55pbyUm1ATYmz+IZ8v/XBIg4ARJAOKGVewWyILJC5+XHZeTdPGKA98KCDDGOF0bQlnuMidIOaz9Tg0i4ARpsNNc5XIIOEHKYe13ahABJ0iDneYql0PACVIOa79Tgwg4QRrsNFe5HAJOkHJY+50aRMAJ0mCnucrlEHCClMPa79QgAk6QBjvNVS6HgBOkHNZ+pwYRcII02GmucjkEnCDlsPY7NYiAE6TBTnOVyyHgBCmHtd+pQQScIA12mqtcDgEnSDms/U4NIuAEabDTXOVyCPwfScDST3bgOVoAAAAASUVORK5CYII=;" parent="1" vertex="1">
          <mxGeometry x="40" y="680" width="40" height="40" as="geometry" />
        </mxCell>
        <mxCell id="yaoMZKG-VxOtJUJC3bOf-8" value="" style="shape=image;verticalLabelPosition=bottom;labelBackgroundColor=default;verticalAlign=top;aspect=fixed;imageAspect=0;image=data:image/png,iVBORw0KGgoAAAANSUhEUgAAAMgAAADICAYAAACtWK6eAAAAAXNSR0IArs4c6QAAFnJJREFUeF7tnQnUdVVZx/+KIuJAToUj5gCmhPOAM6moabhSE01WairOE4lWamiaA2QWgjnkhBoOQYoWaKWEmjiQioqKkmSQJpRKDmiErd/77fN1v/vd6exn7332Pud51jrr3Pe9Z+/z7P8+/3v28AyXkYsj4AgsReAyjo0j4AgsR8AJ4k+HI7ACASeIPx6OgBPEnwFHIA4Bf4PE4ealJoKAE2QiHe3NjEPACRKHm5eaCAJOkIl0tDczDgEnSBxuXmoiCDhBJtLR3sw4BJwgcbh5qYkg4ASZSEd7M+MQcILE4ealJoKAE2QiHe3NjEPACRKHm5eaCAJOkIl0tDczDgEnSBxuXmoiCDhB8nf05SVx7BrO3d/L/neppP+ZO3664H/dNZfkb8J07+AE2azvf07SdSVdW9Iekvi7Oy/73H2/2R3ir4Ig31txfH/uu/+U9O+Szpfk5FqDuxNk24PfHdeb+Tz7/yvFP79Vl/yPGbJ0pOnOEIjPF1bdgszKTYUgPy9pn5lj75nPmSFuvvofSfqqpLPDmc/d8YPmWzexN8hNJe23gAxXG3tHDtQ+3jCzhOHzFySdN5A+yW/b8huE+cAdJN0+HHxmPuAyPALMcz4n6fMz5zOHV6u/Bq0Q5CoLyMB8waUdBH62gDSn1q5+zQS5l6R7S7qPpNvWDqTrF4UAy9cflPQhSadJqu4tUxNBbhUIcQ9JHLw1XKaFwLmBLB+XxHHO0M0fkiDXmCPEzYcGw+9fHQKfCkQ5JRCnuIKlCcLE+r6S7hfOPqku3uXN3vCLkj4QDt4uRaQEQfYKZOiIsXuRlvlNxozA6TNkYaUsm+QiCLvQvz7ztrhcthZ4xVNH4B8kvV/SCTn2X1IT5GaSHhOOa02957z9RRFg7+U4SW8N+y9Jbp6KIGzWdcTYLYlmXokjEI9AR5QPx1exraSVIL8SiHGIVREv7whkQIBJPWR5T2zdsQS5i6TDJT0o9sYTLcducufbMevjMf+/7m9gWuQ3MutbMvt5l4niuq7Zn5D0ujD8WnftDt/HEOQpko7pdZdxXMwY9zuSLgjn7vMPJS06sIKd///FmaFgeIthJgdL6LPnRZ+vL4kDkk1B3ijpcX0a2ocgV5d0tKRH9rlBA9deFHZs2bXl+NYcCToi/G8DbYlV8RcCUTrCLDrH1l1bOSyOmRJ8ZhPFNiXIgcFmZpM6a7wGs+yOAP8yR4hJOwT16KybSMKdYNG5RzXVXPpcSUeu02YTgpwk6dfWVVTJ94zdZ02sO5Pr0Tv2DIz/LGn2DcalLRiYYsJy/1XYrSPIOyUdPDD4y27/7TkyQIyzKtV1qmpBkvmjNixeIukFy5RaRZBXSjqsotZ8VtInJX1M0kclfbMi3VyVzRHoCHO3YGlRw4YyIySWhHeSZQR5WpiQb97stFcyL2ASdcYMKb6b9hZeWyUI3C5YdWOrd88BdUIPnrcdZBFBGJP97QCK8nY4OZg1Y+Y85lWjAeBt4pbXkcTm8wHh+MWCWn9ZEk56rGJul3mC8Lr7p7BSUUK3jhRMlvjs4gjMIsDQpzv2LAANRo8HrSLIkyUdm1kRiAAheFs4KTKDPZLqrzpDFAiT02Xi0bM77vNvkI9kGgeyD8GK2LudFCN5ZIdrBsE6urfKyiXaSBXhAMO8LZklCBMkvkwprDhBDA5MNVwcgZQIPFDSoRn26bAxZP9vB4IwtGKIZRWCKh8fSMEwysURyI1AaqKcKOkhswRhcv4lSdY16RcFcmDv4uIIlEYgJVHuzn5bN8RKMTlniW6HJbLS6Pj9HIGAwO9KepkRjS3L344gr5f0eEOFD7M4pRju60UdgWUIMDfBByRWMFu6RUcQHN+3z9x71gi5ntCzjF/uCJRAAFMpTKZi5CfkgOkIQi4IhkgxctcQ3CumrJdxBHIicGfjs7n1BiF3BolUYoWJvftUxKLn5XIjwPYCzn4xchAE2T+Yl8RUQJl1JvOx9Xo5RyAFApbN72fxcBOu500GTZwgBvC8aHYELAQ5hof7hZKOMKjpBDGA50WzI2AhyMk83H+4yqNqA/WdIBuA5JcMhoCFIKfycONy+DyD+k4QA3heNDsCZoKw48jOY6w4QWKR83IlEDAT5BWSnmPQ1AliAM+LZkfATJCjJD3boKYTxACeF82OgJkg1uglTpDlfXzZEFuX+LqrDvKndN9TGy4DfQ5i/rosRsBMkFdJeqYB3TEThLZhKdAde2CfE+LeLvo8/12pVBDEAP5+z4MYw90xZoKZCfJnkp4+IYIQqJloGTeYefCvOUcECMH/OKYgmApxzJKGz7P/Iw7ZN0J0+pYwMRPk1ZKeamhxjW8Q/JYhAceNZj7zN9+5xCNwXiAKZCHOMefu4LvaxEyQ10h6kqFVjJ+HimHFA3/rcJBnneDK/G8q4fwN3ZalKLGRIcvXQljYLk4yfw8lZoK81ujPQQiWHxdo/X6SIAGE6M6M+V3qR4BcKV0g8dkzPhe5xUwQqzchiVqYIKYU8lOQxYrjToEUnj0pJcJ11PWVEAbqtGBRzt+pxUyQv5D0WINWJF8hyYxFeCtAhjuGg6GSy/QQIH4aZCFl2qfDcYkRBjNBMHXH5D1W+LXvOzlj4vwASXgjQoq9Ym/u5UaNAM5OpweivDcyvbOZIG+R9CgDzDcOqxnrqrhuIAXE4PAh0zrE/Pt5BAiqDlH+uocXq5kgbws522K745ckLRs7so/QEYJzzpiqsfp7ufYQYH8GkkCWdZkIzAR5h6TfNGB0S0lnzpVnDsHu/CNCplVD9V7UEViJAEvJEOXNkv51wZVmghAm9OGGTrj9TMbQKwVikNLqCoY6vagj0BcBEixBEja+z50pbCbIuyQR+C1WWH0ipwibjS8NdkqxdXk5R8CKAJvWEOWPAlHMBHmPpIcatGIFDGJc21CHF3UEciDAAtQNDSk9tlxuT5D04BzaeZ2OQOMIbBGECQ75EFwcAUdgRwS2CEKiEDL2uDgCjsACgpAfmj0KF0fAEVhAEDZacuR6c7AdgdYR2BpikXGWJO4ujoAjsOAN8iFJ93FkHAFHYCcEtt4gluQ5jqkjMGYEtghi2WkcMzjeNkfgFAhiteZ1GB2BsSJwLAR5vqQXj7WFjbQL+yG8MjmIcYWXJseVG9F/rGoeBkEwdcfk3aUMArgG/J0k9p8gBOnv8JxbJBCkIwv59lhMObCMmn4XLExSpGBzJFcjwNvhr0hKH4hxthGwq4WMxPeSdJAkPDVd8iCwLwTZU9K38tQ/6VovCmbX+PzPO5SlAoYErFhT/7akvVNV6vVsR2D3Liri30viF8nFjsC3Q85HiHGOvbqNasBRDZJAFiLEuNgROFXSAR1BHifpDfY6J18D/gcvmvNoKw3Kc0NCJOKVucQj8BRJr+kIwi/QF0LYzvgqp1sSF0+IAUFqkFsEkhxSgzIN6sC8EQfAC2YDT+Oi+PsNNmZolWt4ayzD4OCQoBXCuGyOwImSHsLlswTZN7xFNq/Gr3yGpKMrh+Hmkt4tyUmyeUf9VthA34EgFH+5JMawLusRwMmMvYwWxEmyeS8R8IEFjy2Zz+3BxO5j/muzFk1+jc9ae1VdFzhJ1vcHsYHBaXsw9kXJb5jYYZ/lshiBK0q6uFFw6HzeeuRQcdkZgf1DLODt3yzLDvVOSUzwXHZEgL2iDzcOCtEu/7LxNuRQn1XIF85XvIwgN5N0nCSiJrpsQ4CIfZZcjjXh+KeSWGBw2YYAb9WFgUtW5Re8ejCVwN5n6vL+YPc0FhzY98JRjtQTU5djJD1tGQibJOC0ZqBqvQPYQCXqy7+13pA5/RkuYmI0VWEz8HckkeV5qWxCEApPeRNxy+RgpE/RVIdaZwRLg7U/EJsShOfjtmGP5DdG+rAsataXJd2m4VWrdV3FahYZnLAKnor8saTDN21sH4J0dbIrOxWSPEfSUZuC2eh1mBcxQpiCLFypSjHEmq+D5bAjRo7oN8PbY5m331iaz4SdtwimRmMWvDh7e2PGvEE6EPllffaIEe39a9MwFmQDe1XD+q9T/bPhx27ddTt9byEIlX1xxGYps5mzegPbWAHml59pTOc+6kbbzVkJMtah1icl3alPD4zgWmzLSMg6NjHtYVkJgm3Pl8aGaFgCfMUI27WqSa+TdOgI2xz99gALK0Gog/yEGHmNSSA+S7xTkgdK4td2bEJQEkIrRUkKgrCuzI7kWIQ34thXdJb11c/G0omhHbhCmyyXUxDkniG+71iw3YpmMZbG9GwH5heX7Vmm5sv/RhJvxmhJQRCMGse0VzBlglwiaZfop6m+gi+zxllIQRBgOW9EEf6mTJCfSrp8fc95tEaE1T0+unSiSTr3H1MatykT5CeSdrU8UJWVZS5pWmVN9QZhSRS7pTHIlAnyY0m7jaETJV2aYriYiiCPlPT2kQA7ZYL8SBI+92OQz6UIw5qKIPtJ+vwYUJVUkiC7B0/Fu0jaRxKuzix6sKvN0IAd/fcVDC7+A0kYL45BCDxCfCuTpCIISoxlDb0EQcjzQewl3JkhyTphA++9ISj2umst3//3iJL2JAnql5IgY0kGmpMg1w9ztadGPsUnSTpS0scjy68rRjyoq667qJHvsSv7ilXXlAR5nqSXWBWqoHwugpDohtU+hqNWeWymt8n3JO1hVa6C8l9LlS8lJUHuEcbvFeBjUiEHQZj48mt2A5NmOxbGF+eVCeujqv+SRAar1gXDyyemaERKgrA8CMCtr4LkIEiu+dlhiR2dLpR0jRQP1sB14BJO2juzpCQIyhCAixA5LUtqguS0dmbfgvA9n0gE+AWSrpmorqGqYSXuOpJYcDBLaoL8QUgkY1ZswApSEuRPJD0rc1sIhZoqfR5m4a1HOGEh40GpME9NkPtKOiWVcgPVk4ogJd1YnyCJAH9WIb8iaadbFlYIj03VgNQEQS/SJ7Dx1aqkIkhJDz0Cod0uAeCE/yf1WKvCKhzObsmyNucgCJEIiXfaqqQgSMm3R4dzirfI+WH83mrfvVESCWmTSQ6CYCpBPFsmSi1KCoIQBX5lzNcMwETFfZrTg/jD18ugW6kqWSBirymZ5CAIyrXshpuCIEPlV2GfxRJkm2B57Pa3KNGxr1Y1NhdBhhhipOrUFAQZasONMP6W4S0+3HulArJwPc/PEUI1F0HAho2arVS6jYmVIJiU4GE5hLCsbAmg8Q1JNxxC8QT3zBKJJidBsFTFVLs1sRJkyCAW5Gx/jAHwcyTdyFB+qKJ/LunJOW6ekyDo+8GYgME5GtqjTitBWEV5Q4/7pbzUFEVQEkZ+N0mpUIG6SKh6h7AwlPx2uQnyMEnvSq513gqtBMH1eKiojCSEwdckVs6WdNPYwgOVI+g2NmlZJDdBUPofJd09i/Z5KrUS5MGSTsij2tpa+TF6+Nqrll+AxTGeja0IG4MEGf96LoVLEORRkhgbtyJWggzpfmwdixNuFbffVsQc92pdQ0sQBB0+1VBKaStBMPcn+MEQQqYoljtjBT94VoNaEOzGeHtkXTEsRZBHh5TSLQBvJQhtZNPqVgM09lclnWy4b0v5XnI4jO0EXSmCcOM3S4IotUsKggyRPZbNSauz05mSfrn2Dgo53u9dQs+SBGED6iMNbESlIMgQ8653SDrE+NAQuimFz7xRjbXFIQdBQrJLSYLQmBaGWikIgsk4Kc1KGmyaEsWEJ22ooWGfBx0//GK5MUsTpIWhVgqC0M6S6emsG4TdA/rPKaIR9nnae17LIgJbBgwni8gQBKl9qJWKICXfIineHjxwvPUwNK1VGEIylCwmQxCExtFQQkPWKKkIQtuwrj06cyNfLQn/kxRS83J8slA+fYAaiiDo+FJJv9dH2ULXpiQIKvOLR56KHMJOcso4VsQCxq6pNkGvAyVdVFqxIQlCW4k3mywCRSLwUhMEtdibuF8i/WarubUkopinEsIH1Zb+mqQ+kAOTpeIyNEFIsEgUlL2Lt3z5DXMQhLulnLRjVMgPizn27BwMOWN4xXbxMwdwX96u69AEQRH8iAk4V4vkIkgqkhwnidA2SQKjzYFeW0Satw69uVwDQeijw0PU8hpIkpMgtI/YYQT57humh0Sp2Fm9NiNIH5V014z196maTUuGVt/pUyj1tbUQhHaxGhObFiAlLrkJgq6kGCBCO16XeCCuEpZemavxls2dpKgW1wQCT7B0nbu9a5+bmgiCsjX4sWOwx7CPCB8lhP0SJtvYUREXF2tgYuRyfFUSJuilBFOgdYQtocv+kk4vcaN196iNIOhbw0TxNEmkc5iS4NOdLGSnAbgDakqjUSNBwLaG6BpW5yPDM1K86I1zeuX1aM39a4vtXCtBwLSGnN1ER2SZccyCB2HJYdwyLK0xvbL0Uc0EocE1hMI8PqQwIDXA2ATyE/RgaCni/BTTyNoJQpvIf8G4dEjBkYgcjDXt11jw2EXSCyQdYakkUdniBoh99G6BILSHtX+ilw8tLw8P1iVDK2K4PyYv7KcMnaICO7KHlnJ8isWrFYLQvqNKOsqsAJQVLuYmJ8aCPlA5oraT7SpbDKke7cIxizfHWT3KDHJpSwQBoBcbo3akBJl1eix13y6JX8NahXzhhCPFm/NaFSjJD8vjSzo9WdrcGkFoK0OtIytKeM9CAjvdWOxaIopY+nFRWZZMMWiEGFdIXXlkfbg4MJdrRlokCODeMYT3rG0zjwh/HVEYiv2w8JMAKbqjphi7uMgyvMPQsilplSCAvGt4kzyjUsRx7sG/AgtZgnh/OrGemKjgHovR423C55JBIjZtDpYRkANvxeakZYJ0YBNihyFX7emLibaI/wabcpw5SJpJXm9M1zlz4CB0lXBcOZyx0WJDj4M5BecW8pm/KZCjuCdgKiaOgSBgccuw/Npiwp5UfVlTPczL+NGyZLuqoj1jIUgH5qFhlavVPHtVPBRGJSAF5LDkSjSqkK742AgCMrjxslKCv4VLOQTIssteFefRyBgJ0nXOweFtsu9oeqvOhoxmOLUI3jEThPYSEodVLjamalzhqfOR30wrFhQYTnGcv1mR9q4aO0G6HmFJlA1GJ0qaZxTbOFykqzcVsTZ3KgRxoliflG3lMf3njcHexiRkagSZJwrLwj5HWf2oXxpiBZBGryZTmiIEnSpBZsEl6SZm15CF3XmXbQgQsZFkpATSSB2grhmMnSD/31XYLkEUjpojnOd8uNjt70hxUs4btVK3E2RxT+FURL5xMhm1kHHJ8rx9N3htkrGJIdS5lsrGVtYJsr5HidHUkeVu6y9v4gribeHKDCk4QxKXBQg4Qfo9FqRI5q2Cuyom93v1Kz7Y1ReGQGxnBFIQYtRlAwScIBuAtOISMsLeWRJvGdIG7GOrLllpdrchAab2kILwpaxGufREwAnSE7A1l+PSygSfNHO8XTh3x55pbyUm1ATYmz+IZ8v/XBIg4ARJAOKGVewWyILJC5+XHZeTdPGKA98KCDDGOF0bQlnuMidIOaz9Tg0i4ARpsNNc5XIIOEHKYe13ahABJ0iDneYql0PACVIOa79Tgwg4QRrsNFe5HAJOkHJY+50aRMAJ0mCnucrlEHCClMPa79QgAk6QBjvNVS6HgBOkHNZ+pwYRcII02GmucjkEnCDlsPY7NYiAE6TBTnOVyyHgBCmHtd+pQQScIA12mqtcDgEnSDms/U4NIuAEabDTXOVyCPwfScDST3bgOVoAAAAASUVORK5CYII=;" parent="1" vertex="1">
          <mxGeometry x="110" y="680" width="40" height="40" as="geometry" />
        </mxCell>
        <mxCell id="yaoMZKG-VxOtJUJC3bOf-9" value="" style="shape=image;verticalLabelPosition=bottom;labelBackgroundColor=default;verticalAlign=top;aspect=fixed;imageAspect=0;image=data:image/png,iVBORw0KGgoAAAANSUhEUgAAAMgAAADICAYAAACtWK6eAAAAAXNSR0IArs4c6QAAFnJJREFUeF7tnQnUdVVZx/+KIuJAToUj5gCmhPOAM6moabhSE01WairOE4lWamiaA2QWgjnkhBoOQYoWaKWEmjiQioqKkmSQJpRKDmiErd/77fN1v/vd6exn7332Pud51jrr3Pe9Z+/z7P8+/3v28AyXkYsj4AgsReAyjo0j4AgsR8AJ4k+HI7ACASeIPx6OgBPEnwFHIA4Bf4PE4ealJoKAE2QiHe3NjEPACRKHm5eaCAJOkIl0tDczDgEnSBxuXmoiCDhBJtLR3sw4BJwgcbh5qYkg4ASZSEd7M+MQcILE4ealJoKAE2QiHe3NjEPACRKHm5eaCAJOkIl0tDczDgEnSBxuXmoiCDhB8nf05SVx7BrO3d/L/neppP+ZO3664H/dNZfkb8J07+AE2azvf07SdSVdW9Iekvi7Oy/73H2/2R3ir4Ig31txfH/uu/+U9O+Szpfk5FqDuxNk24PfHdeb+Tz7/yvFP79Vl/yPGbJ0pOnOEIjPF1bdgszKTYUgPy9pn5lj75nPmSFuvvofSfqqpLPDmc/d8YPmWzexN8hNJe23gAxXG3tHDtQ+3jCzhOHzFySdN5A+yW/b8huE+cAdJN0+HHxmPuAyPALMcz4n6fMz5zOHV6u/Bq0Q5CoLyMB8waUdBH62gDSn1q5+zQS5l6R7S7qPpNvWDqTrF4UAy9cflPQhSadJqu4tUxNBbhUIcQ9JHLw1XKaFwLmBLB+XxHHO0M0fkiDXmCPEzYcGw+9fHQKfCkQ5JRCnuIKlCcLE+r6S7hfOPqku3uXN3vCLkj4QDt4uRaQEQfYKZOiIsXuRlvlNxozA6TNkYaUsm+QiCLvQvz7ztrhcthZ4xVNH4B8kvV/SCTn2X1IT5GaSHhOOa02957z9RRFg7+U4SW8N+y9Jbp6KIGzWdcTYLYlmXokjEI9AR5QPx1exraSVIL8SiHGIVREv7whkQIBJPWR5T2zdsQS5i6TDJT0o9sYTLcducufbMevjMf+/7m9gWuQ3MutbMvt5l4niuq7Zn5D0ujD8WnftDt/HEOQpko7pdZdxXMwY9zuSLgjn7vMPJS06sIKd///FmaFgeIthJgdL6LPnRZ+vL4kDkk1B3ijpcX0a2ocgV5d0tKRH9rlBA9deFHZs2bXl+NYcCToi/G8DbYlV8RcCUTrCLDrH1l1bOSyOmRJ8ZhPFNiXIgcFmZpM6a7wGs+yOAP8yR4hJOwT16KybSMKdYNG5RzXVXPpcSUeu02YTgpwk6dfWVVTJ94zdZ02sO5Pr0Tv2DIz/LGn2DcalLRiYYsJy/1XYrSPIOyUdPDD4y27/7TkyQIyzKtV1qmpBkvmjNixeIukFy5RaRZBXSjqsotZ8VtInJX1M0kclfbMi3VyVzRHoCHO3YGlRw4YyIySWhHeSZQR5WpiQb97stFcyL2ASdcYMKb6b9hZeWyUI3C5YdWOrd88BdUIPnrcdZBFBGJP97QCK8nY4OZg1Y+Y85lWjAeBt4pbXkcTm8wHh+MWCWn9ZEk56rGJul3mC8Lr7p7BSUUK3jhRMlvjs4gjMIsDQpzv2LAANRo8HrSLIkyUdm1kRiAAheFs4KTKDPZLqrzpDFAiT02Xi0bM77vNvkI9kGgeyD8GK2LudFCN5ZIdrBsE6urfKyiXaSBXhAMO8LZklCBMkvkwprDhBDA5MNVwcgZQIPFDSoRn26bAxZP9vB4IwtGKIZRWCKh8fSMEwysURyI1AaqKcKOkhswRhcv4lSdY16RcFcmDv4uIIlEYgJVHuzn5bN8RKMTlniW6HJbLS6Pj9HIGAwO9KepkRjS3L344gr5f0eEOFD7M4pRju60UdgWUIMDfBByRWMFu6RUcQHN+3z9x71gi5ntCzjF/uCJRAAFMpTKZi5CfkgOkIQi4IhkgxctcQ3CumrJdxBHIicGfjs7n1BiF3BolUYoWJvftUxKLn5XIjwPYCzn4xchAE2T+Yl8RUQJl1JvOx9Xo5RyAFApbN72fxcBOu500GTZwgBvC8aHYELAQ5hof7hZKOMKjpBDGA50WzI2AhyMk83H+4yqNqA/WdIBuA5JcMhoCFIKfycONy+DyD+k4QA3heNDsCZoKw48jOY6w4QWKR83IlEDAT5BWSnmPQ1AliAM+LZkfATJCjJD3boKYTxACeF82OgJkg1uglTpDlfXzZEFuX+LqrDvKndN9TGy4DfQ5i/rosRsBMkFdJeqYB3TEThLZhKdAde2CfE+LeLvo8/12pVBDEAP5+z4MYw90xZoKZCfJnkp4+IYIQqJloGTeYefCvOUcECMH/OKYgmApxzJKGz7P/Iw7ZN0J0+pYwMRPk1ZKeamhxjW8Q/JYhAceNZj7zN9+5xCNwXiAKZCHOMefu4LvaxEyQ10h6kqFVjJ+HimHFA3/rcJBnneDK/G8q4fwN3ZalKLGRIcvXQljYLk4yfw8lZoK81ujPQQiWHxdo/X6SIAGE6M6M+V3qR4BcKV0g8dkzPhe5xUwQqzchiVqYIKYU8lOQxYrjToEUnj0pJcJ11PWVEAbqtGBRzt+pxUyQv5D0WINWJF8hyYxFeCtAhjuGg6GSy/QQIH4aZCFl2qfDcYkRBjNBMHXH5D1W+LXvOzlj4vwASXgjQoq9Ym/u5UaNAM5OpweivDcyvbOZIG+R9CgDzDcOqxnrqrhuIAXE4PAh0zrE/Pt5BAiqDlH+uocXq5kgbws522K745ckLRs7so/QEYJzzpiqsfp7ufYQYH8GkkCWdZkIzAR5h6TfNGB0S0lnzpVnDsHu/CNCplVD9V7UEViJAEvJEOXNkv51wZVmghAm9OGGTrj9TMbQKwVikNLqCoY6vagj0BcBEixBEja+z50pbCbIuyQR+C1WWH0ipwibjS8NdkqxdXk5R8CKAJvWEOWPAlHMBHmPpIcatGIFDGJc21CHF3UEciDAAtQNDSk9tlxuT5D04BzaeZ2OQOMIbBGECQ75EFwcAUdgRwS2CEKiEDL2uDgCjsACgpAfmj0KF0fAEVhAEDZacuR6c7AdgdYR2BpikXGWJO4ujoAjsOAN8iFJ93FkHAFHYCcEtt4gluQ5jqkjMGYEtghi2WkcMzjeNkfgFAhiteZ1GB2BsSJwLAR5vqQXj7WFjbQL+yG8MjmIcYWXJseVG9F/rGoeBkEwdcfk3aUMArgG/J0k9p8gBOnv8JxbJBCkIwv59lhMObCMmn4XLExSpGBzJFcjwNvhr0hKH4hxthGwq4WMxPeSdJAkPDVd8iCwLwTZU9K38tQ/6VovCmbX+PzPO5SlAoYErFhT/7akvVNV6vVsR2D3Liri30viF8nFjsC3Q85HiHGOvbqNasBRDZJAFiLEuNgROFXSAR1BHifpDfY6J18D/gcvmvNoKw3Kc0NCJOKVucQj8BRJr+kIwi/QF0LYzvgqp1sSF0+IAUFqkFsEkhxSgzIN6sC8EQfAC2YDT+Oi+PsNNmZolWt4ayzD4OCQoBXCuGyOwImSHsLlswTZN7xFNq/Gr3yGpKMrh+Hmkt4tyUmyeUf9VthA34EgFH+5JMawLusRwMmMvYwWxEmyeS8R8IEFjy2Zz+3BxO5j/muzFk1+jc9ae1VdFzhJ1vcHsYHBaXsw9kXJb5jYYZ/lshiBK0q6uFFw6HzeeuRQcdkZgf1DLODt3yzLDvVOSUzwXHZEgL2iDzcOCtEu/7LxNuRQn1XIF85XvIwgN5N0nCSiJrpsQ4CIfZZcjjXh+KeSWGBw2YYAb9WFgUtW5Re8ejCVwN5n6vL+YPc0FhzY98JRjtQTU5djJD1tGQibJOC0ZqBqvQPYQCXqy7+13pA5/RkuYmI0VWEz8HckkeV5qWxCEApPeRNxy+RgpE/RVIdaZwRLg7U/EJsShOfjtmGP5DdG+rAsataXJd2m4VWrdV3FahYZnLAKnor8saTDN21sH4J0dbIrOxWSPEfSUZuC2eh1mBcxQpiCLFypSjHEmq+D5bAjRo7oN8PbY5m331iaz4SdtwimRmMWvDh7e2PGvEE6EPllffaIEe39a9MwFmQDe1XD+q9T/bPhx27ddTt9byEIlX1xxGYps5mzegPbWAHml59pTOc+6kbbzVkJMtah1icl3alPD4zgWmzLSMg6NjHtYVkJgm3Pl8aGaFgCfMUI27WqSa+TdOgI2xz99gALK0Gog/yEGHmNSSA+S7xTkgdK4td2bEJQEkIrRUkKgrCuzI7kWIQ34thXdJb11c/G0omhHbhCmyyXUxDkniG+71iw3YpmMZbG9GwH5heX7Vmm5sv/RhJvxmhJQRCMGse0VzBlglwiaZfop6m+gi+zxllIQRBgOW9EEf6mTJCfSrp8fc95tEaE1T0+unSiSTr3H1MatykT5CeSdrU8UJWVZS5pWmVN9QZhSRS7pTHIlAnyY0m7jaETJV2aYriYiiCPlPT2kQA7ZYL8SBI+92OQz6UIw5qKIPtJ+vwYUJVUkiC7B0/Fu0jaRxKuzix6sKvN0IAd/fcVDC7+A0kYL45BCDxCfCuTpCIISoxlDb0EQcjzQewl3JkhyTphA++9ISj2umst3//3iJL2JAnql5IgY0kGmpMg1w9ztadGPsUnSTpS0scjy68rRjyoq667qJHvsSv7ilXXlAR5nqSXWBWqoHwugpDohtU+hqNWeWymt8n3JO1hVa6C8l9LlS8lJUHuEcbvFeBjUiEHQZj48mt2A5NmOxbGF+eVCeujqv+SRAar1gXDyyemaERKgrA8CMCtr4LkIEiu+dlhiR2dLpR0jRQP1sB14BJO2juzpCQIyhCAixA5LUtqguS0dmbfgvA9n0gE+AWSrpmorqGqYSXuOpJYcDBLaoL8QUgkY1ZswApSEuRPJD0rc1sIhZoqfR5m4a1HOGEh40GpME9NkPtKOiWVcgPVk4ogJd1YnyCJAH9WIb8iaadbFlYIj03VgNQEQS/SJ7Dx1aqkIkhJDz0Cod0uAeCE/yf1WKvCKhzObsmyNucgCJEIiXfaqqQgSMm3R4dzirfI+WH83mrfvVESCWmTSQ6CYCpBPFsmSi1KCoIQBX5lzNcMwETFfZrTg/jD18ugW6kqWSBirymZ5CAIyrXshpuCIEPlV2GfxRJkm2B57Pa3KNGxr1Y1NhdBhhhipOrUFAQZasONMP6W4S0+3HulArJwPc/PEUI1F0HAho2arVS6jYmVIJiU4GE5hLCsbAmg8Q1JNxxC8QT3zBKJJidBsFTFVLs1sRJkyCAW5Gx/jAHwcyTdyFB+qKJ/LunJOW6ekyDo+8GYgME5GtqjTitBWEV5Q4/7pbzUFEVQEkZ+N0mpUIG6SKh6h7AwlPx2uQnyMEnvSq513gqtBMH1eKiojCSEwdckVs6WdNPYwgOVI+g2NmlZJDdBUPofJd09i/Z5KrUS5MGSTsij2tpa+TF6+Nqrll+AxTGeja0IG4MEGf96LoVLEORRkhgbtyJWggzpfmwdixNuFbffVsQc92pdQ0sQBB0+1VBKaStBMPcn+MEQQqYoljtjBT94VoNaEOzGeHtkXTEsRZBHh5TSLQBvJQhtZNPqVgM09lclnWy4b0v5XnI4jO0EXSmCcOM3S4IotUsKggyRPZbNSauz05mSfrn2Dgo53u9dQs+SBGED6iMNbESlIMgQ8653SDrE+NAQuimFz7xRjbXFIQdBQrJLSYLQmBaGWikIgsk4Kc1KGmyaEsWEJ22ooWGfBx0//GK5MUsTpIWhVgqC0M6S6emsG4TdA/rPKaIR9nnae17LIgJbBgwni8gQBKl9qJWKICXfIineHjxwvPUwNK1VGEIylCwmQxCExtFQQkPWKKkIQtuwrj06cyNfLQn/kxRS83J8slA+fYAaiiDo+FJJv9dH2ULXpiQIKvOLR56KHMJOcso4VsQCxq6pNkGvAyVdVFqxIQlCW4k3mywCRSLwUhMEtdibuF8i/WarubUkopinEsIH1Zb+mqQ+kAOTpeIyNEFIsEgUlL2Lt3z5DXMQhLulnLRjVMgPizn27BwMOWN4xXbxMwdwX96u69AEQRH8iAk4V4vkIkgqkhwnidA2SQKjzYFeW0Satw69uVwDQeijw0PU8hpIkpMgtI/YYQT57humh0Sp2Fm9NiNIH5V014z196maTUuGVt/pUyj1tbUQhHaxGhObFiAlLrkJgq6kGCBCO16XeCCuEpZemavxls2dpKgW1wQCT7B0nbu9a5+bmgiCsjX4sWOwx7CPCB8lhP0SJtvYUREXF2tgYuRyfFUSJuilBFOgdYQtocv+kk4vcaN196iNIOhbw0TxNEmkc5iS4NOdLGSnAbgDakqjUSNBwLaG6BpW5yPDM1K86I1zeuX1aM39a4vtXCtBwLSGnN1ER2SZccyCB2HJYdwyLK0xvbL0Uc0EocE1hMI8PqQwIDXA2ATyE/RgaCni/BTTyNoJQpvIf8G4dEjBkYgcjDXt11jw2EXSCyQdYakkUdniBoh99G6BILSHtX+ilw8tLw8P1iVDK2K4PyYv7KcMnaICO7KHlnJ8isWrFYLQvqNKOsqsAJQVLuYmJ8aCPlA5oraT7SpbDKke7cIxizfHWT3KDHJpSwQBoBcbo3akBJl1eix13y6JX8NahXzhhCPFm/NaFSjJD8vjSzo9WdrcGkFoK0OtIytKeM9CAjvdWOxaIopY+nFRWZZMMWiEGFdIXXlkfbg4MJdrRlokCODeMYT3rG0zjwh/HVEYiv2w8JMAKbqjphi7uMgyvMPQsilplSCAvGt4kzyjUsRx7sG/AgtZgnh/OrGemKjgHovR423C55JBIjZtDpYRkANvxeakZYJ0YBNihyFX7emLibaI/wabcpw5SJpJXm9M1zlz4CB0lXBcOZyx0WJDj4M5BecW8pm/KZCjuCdgKiaOgSBgccuw/Npiwp5UfVlTPczL+NGyZLuqoj1jIUgH5qFhlavVPHtVPBRGJSAF5LDkSjSqkK742AgCMrjxslKCv4VLOQTIssteFefRyBgJ0nXOweFtsu9oeqvOhoxmOLUI3jEThPYSEodVLjamalzhqfOR30wrFhQYTnGcv1mR9q4aO0G6HmFJlA1GJ0qaZxTbOFykqzcVsTZ3KgRxoliflG3lMf3njcHexiRkagSZJwrLwj5HWf2oXxpiBZBGryZTmiIEnSpBZsEl6SZm15CF3XmXbQgQsZFkpATSSB2grhmMnSD/31XYLkEUjpojnOd8uNjt70hxUs4btVK3E2RxT+FURL5xMhm1kHHJ8rx9N3htkrGJIdS5lsrGVtYJsr5HidHUkeVu6y9v4gribeHKDCk4QxKXBQg4Qfo9FqRI5q2Cuyom93v1Kz7Y1ReGQGxnBFIQYtRlAwScIBuAtOISMsLeWRJvGdIG7GOrLllpdrchAab2kILwpaxGufREwAnSE7A1l+PSygSfNHO8XTh3x55pbyUm1ATYmz+IZ8v/XBIg4ARJAOKGVewWyILJC5+XHZeTdPGKA98KCDDGOF0bQlnuMidIOaz9Tg0i4ARpsNNc5XIIOEHKYe13ahABJ0iDneYql0PACVIOa79Tgwg4QRrsNFe5HAJOkHJY+50aRMAJ0mCnucrlEHCClMPa79QgAk6QBjvNVS6HgBOkHNZ+pwYRcII02GmucjkEnCDlsPY7NYiAE6TBTnOVyyHgBCmHtd+pQQScIA12mqtcDgEnSDms/U4NIuAEabDTXOVyCPwfScDST3bgOVoAAAAASUVORK5CYII=;" parent="1" vertex="1">
          <mxGeometry x="195" y="680" width="40" height="40" as="geometry" />
        </mxCell>
        <mxCell id="yaoMZKG-VxOtJUJC3bOf-10" value="" style="shape=image;verticalLabelPosition=bottom;labelBackgroundColor=default;verticalAlign=top;aspect=fixed;imageAspect=0;image=data:image/png,iVBORw0KGgoAAAANSUhEUgAAAMgAAADICAYAAACtWK6eAAAAAXNSR0IArs4c6QAAFnJJREFUeF7tnQnUdVVZx/+KIuJAToUj5gCmhPOAM6moabhSE01WairOE4lWamiaA2QWgjnkhBoOQYoWaKWEmjiQioqKkmSQJpRKDmiErd/77fN1v/vd6exn7332Pud51jrr3Pe9Z+/z7P8+/3v28AyXkYsj4AgsReAyjo0j4AgsR8AJ4k+HI7ACASeIPx6OgBPEnwFHIA4Bf4PE4ealJoKAE2QiHe3NjEPACRKHm5eaCAJOkIl0tDczDgEnSBxuXmoiCDhBJtLR3sw4BJwgcbh5qYkg4ASZSEd7M+MQcILE4ealJoKAE2QiHe3NjEPACRKHm5eaCAJOkIl0tDczDgEnSBxuXmoiCDhB8nf05SVx7BrO3d/L/neppP+ZO3664H/dNZfkb8J07+AE2azvf07SdSVdW9Iekvi7Oy/73H2/2R3ir4Ig31txfH/uu/+U9O+Szpfk5FqDuxNk24PfHdeb+Tz7/yvFP79Vl/yPGbJ0pOnOEIjPF1bdgszKTYUgPy9pn5lj75nPmSFuvvofSfqqpLPDmc/d8YPmWzexN8hNJe23gAxXG3tHDtQ+3jCzhOHzFySdN5A+yW/b8huE+cAdJN0+HHxmPuAyPALMcz4n6fMz5zOHV6u/Bq0Q5CoLyMB8waUdBH62gDSn1q5+zQS5l6R7S7qPpNvWDqTrF4UAy9cflPQhSadJqu4tUxNBbhUIcQ9JHLw1XKaFwLmBLB+XxHHO0M0fkiDXmCPEzYcGw+9fHQKfCkQ5JRCnuIKlCcLE+r6S7hfOPqku3uXN3vCLkj4QDt4uRaQEQfYKZOiIsXuRlvlNxozA6TNkYaUsm+QiCLvQvz7ztrhcthZ4xVNH4B8kvV/SCTn2X1IT5GaSHhOOa02957z9RRFg7+U4SW8N+y9Jbp6KIGzWdcTYLYlmXokjEI9AR5QPx1exraSVIL8SiHGIVREv7whkQIBJPWR5T2zdsQS5i6TDJT0o9sYTLcducufbMevjMf+/7m9gWuQ3MutbMvt5l4niuq7Zn5D0ujD8WnftDt/HEOQpko7pdZdxXMwY9zuSLgjn7vMPJS06sIKd///FmaFgeIthJgdL6LPnRZ+vL4kDkk1B3ijpcX0a2ocgV5d0tKRH9rlBA9deFHZs2bXl+NYcCToi/G8DbYlV8RcCUTrCLDrH1l1bOSyOmRJ8ZhPFNiXIgcFmZpM6a7wGs+yOAP8yR4hJOwT16KybSMKdYNG5RzXVXPpcSUeu02YTgpwk6dfWVVTJ94zdZ02sO5Pr0Tv2DIz/LGn2DcalLRiYYsJy/1XYrSPIOyUdPDD4y27/7TkyQIyzKtV1qmpBkvmjNixeIukFy5RaRZBXSjqsotZ8VtInJX1M0kclfbMi3VyVzRHoCHO3YGlRw4YyIySWhHeSZQR5WpiQb97stFcyL2ASdcYMKb6b9hZeWyUI3C5YdWOrd88BdUIPnrcdZBFBGJP97QCK8nY4OZg1Y+Y85lWjAeBt4pbXkcTm8wHh+MWCWn9ZEk56rGJul3mC8Lr7p7BSUUK3jhRMlvjs4gjMIsDQpzv2LAANRo8HrSLIkyUdm1kRiAAheFs4KTKDPZLqrzpDFAiT02Xi0bM77vNvkI9kGgeyD8GK2LudFCN5ZIdrBsE6urfKyiXaSBXhAMO8LZklCBMkvkwprDhBDA5MNVwcgZQIPFDSoRn26bAxZP9vB4IwtGKIZRWCKh8fSMEwysURyI1AaqKcKOkhswRhcv4lSdY16RcFcmDv4uIIlEYgJVHuzn5bN8RKMTlniW6HJbLS6Pj9HIGAwO9KepkRjS3L344gr5f0eEOFD7M4pRju60UdgWUIMDfBByRWMFu6RUcQHN+3z9x71gi5ntCzjF/uCJRAAFMpTKZi5CfkgOkIQi4IhkgxctcQ3CumrJdxBHIicGfjs7n1BiF3BolUYoWJvftUxKLn5XIjwPYCzn4xchAE2T+Yl8RUQJl1JvOx9Xo5RyAFApbN72fxcBOu500GTZwgBvC8aHYELAQ5hof7hZKOMKjpBDGA50WzI2AhyMk83H+4yqNqA/WdIBuA5JcMhoCFIKfycONy+DyD+k4QA3heNDsCZoKw48jOY6w4QWKR83IlEDAT5BWSnmPQ1AliAM+LZkfATJCjJD3boKYTxACeF82OgJkg1uglTpDlfXzZEFuX+LqrDvKndN9TGy4DfQ5i/rosRsBMkFdJeqYB3TEThLZhKdAde2CfE+LeLvo8/12pVBDEAP5+z4MYw90xZoKZCfJnkp4+IYIQqJloGTeYefCvOUcECMH/OKYgmApxzJKGz7P/Iw7ZN0J0+pYwMRPk1ZKeamhxjW8Q/JYhAceNZj7zN9+5xCNwXiAKZCHOMefu4LvaxEyQ10h6kqFVjJ+HimHFA3/rcJBnneDK/G8q4fwN3ZalKLGRIcvXQljYLk4yfw8lZoK81ujPQQiWHxdo/X6SIAGE6M6M+V3qR4BcKV0g8dkzPhe5xUwQqzchiVqYIKYU8lOQxYrjToEUnj0pJcJ11PWVEAbqtGBRzt+pxUyQv5D0WINWJF8hyYxFeCtAhjuGg6GSy/QQIH4aZCFl2qfDcYkRBjNBMHXH5D1W+LXvOzlj4vwASXgjQoq9Ym/u5UaNAM5OpweivDcyvbOZIG+R9CgDzDcOqxnrqrhuIAXE4PAh0zrE/Pt5BAiqDlH+uocXq5kgbws522K745ckLRs7so/QEYJzzpiqsfp7ufYQYH8GkkCWdZkIzAR5h6TfNGB0S0lnzpVnDsHu/CNCplVD9V7UEViJAEvJEOXNkv51wZVmghAm9OGGTrj9TMbQKwVikNLqCoY6vagj0BcBEixBEja+z50pbCbIuyQR+C1WWH0ipwibjS8NdkqxdXk5R8CKAJvWEOWPAlHMBHmPpIcatGIFDGJc21CHF3UEciDAAtQNDSk9tlxuT5D04BzaeZ2OQOMIbBGECQ75EFwcAUdgRwS2CEKiEDL2uDgCjsACgpAfmj0KF0fAEVhAEDZacuR6c7AdgdYR2BpikXGWJO4ujoAjsOAN8iFJ93FkHAFHYCcEtt4gluQ5jqkjMGYEtghi2WkcMzjeNkfgFAhiteZ1GB2BsSJwLAR5vqQXj7WFjbQL+yG8MjmIcYWXJseVG9F/rGoeBkEwdcfk3aUMArgG/J0k9p8gBOnv8JxbJBCkIwv59lhMObCMmn4XLExSpGBzJFcjwNvhr0hKH4hxthGwq4WMxPeSdJAkPDVd8iCwLwTZU9K38tQ/6VovCmbX+PzPO5SlAoYErFhT/7akvVNV6vVsR2D3Liri30viF8nFjsC3Q85HiHGOvbqNasBRDZJAFiLEuNgROFXSAR1BHifpDfY6J18D/gcvmvNoKw3Kc0NCJOKVucQj8BRJr+kIwi/QF0LYzvgqp1sSF0+IAUFqkFsEkhxSgzIN6sC8EQfAC2YDT+Oi+PsNNmZolWt4ayzD4OCQoBXCuGyOwImSHsLlswTZN7xFNq/Gr3yGpKMrh+Hmkt4tyUmyeUf9VthA34EgFH+5JMawLusRwMmMvYwWxEmyeS8R8IEFjy2Zz+3BxO5j/muzFk1+jc9ae1VdFzhJ1vcHsYHBaXsw9kXJb5jYYZ/lshiBK0q6uFFw6HzeeuRQcdkZgf1DLODt3yzLDvVOSUzwXHZEgL2iDzcOCtEu/7LxNuRQn1XIF85XvIwgN5N0nCSiJrpsQ4CIfZZcjjXh+KeSWGBw2YYAb9WFgUtW5Re8ejCVwN5n6vL+YPc0FhzY98JRjtQTU5djJD1tGQibJOC0ZqBqvQPYQCXqy7+13pA5/RkuYmI0VWEz8HckkeV5qWxCEApPeRNxy+RgpE/RVIdaZwRLg7U/EJsShOfjtmGP5DdG+rAsataXJd2m4VWrdV3FahYZnLAKnor8saTDN21sH4J0dbIrOxWSPEfSUZuC2eh1mBcxQpiCLFypSjHEmq+D5bAjRo7oN8PbY5m331iaz4SdtwimRmMWvDh7e2PGvEE6EPllffaIEe39a9MwFmQDe1XD+q9T/bPhx27ddTt9byEIlX1xxGYps5mzegPbWAHml59pTOc+6kbbzVkJMtah1icl3alPD4zgWmzLSMg6NjHtYVkJgm3Pl8aGaFgCfMUI27WqSa+TdOgI2xz99gALK0Gog/yEGHmNSSA+S7xTkgdK4td2bEJQEkIrRUkKgrCuzI7kWIQ34thXdJb11c/G0omhHbhCmyyXUxDkniG+71iw3YpmMZbG9GwH5heX7Vmm5sv/RhJvxmhJQRCMGse0VzBlglwiaZfop6m+gi+zxllIQRBgOW9EEf6mTJCfSrp8fc95tEaE1T0+unSiSTr3H1MatykT5CeSdrU8UJWVZS5pWmVN9QZhSRS7pTHIlAnyY0m7jaETJV2aYriYiiCPlPT2kQA7ZYL8SBI+92OQz6UIw5qKIPtJ+vwYUJVUkiC7B0/Fu0jaRxKuzix6sKvN0IAd/fcVDC7+A0kYL45BCDxCfCuTpCIISoxlDb0EQcjzQewl3JkhyTphA++9ISj2umst3//3iJL2JAnql5IgY0kGmpMg1w9ztadGPsUnSTpS0scjy68rRjyoq667qJHvsSv7ilXXlAR5nqSXWBWqoHwugpDohtU+hqNWeWymt8n3JO1hVa6C8l9LlS8lJUHuEcbvFeBjUiEHQZj48mt2A5NmOxbGF+eVCeujqv+SRAar1gXDyyemaERKgrA8CMCtr4LkIEiu+dlhiR2dLpR0jRQP1sB14BJO2juzpCQIyhCAixA5LUtqguS0dmbfgvA9n0gE+AWSrpmorqGqYSXuOpJYcDBLaoL8QUgkY1ZswApSEuRPJD0rc1sIhZoqfR5m4a1HOGEh40GpME9NkPtKOiWVcgPVk4ogJd1YnyCJAH9WIb8iaadbFlYIj03VgNQEQS/SJ7Dx1aqkIkhJDz0Cod0uAeCE/yf1WKvCKhzObsmyNucgCJEIiXfaqqQgSMm3R4dzirfI+WH83mrfvVESCWmTSQ6CYCpBPFsmSi1KCoIQBX5lzNcMwETFfZrTg/jD18ugW6kqWSBirymZ5CAIyrXshpuCIEPlV2GfxRJkm2B57Pa3KNGxr1Y1NhdBhhhipOrUFAQZasONMP6W4S0+3HulArJwPc/PEUI1F0HAho2arVS6jYmVIJiU4GE5hLCsbAmg8Q1JNxxC8QT3zBKJJidBsFTFVLs1sRJkyCAW5Gx/jAHwcyTdyFB+qKJ/LunJOW6ekyDo+8GYgME5GtqjTitBWEV5Q4/7pbzUFEVQEkZ+N0mpUIG6SKh6h7AwlPx2uQnyMEnvSq513gqtBMH1eKiojCSEwdckVs6WdNPYwgOVI+g2NmlZJDdBUPofJd09i/Z5KrUS5MGSTsij2tpa+TF6+Nqrll+AxTGeja0IG4MEGf96LoVLEORRkhgbtyJWggzpfmwdixNuFbffVsQc92pdQ0sQBB0+1VBKaStBMPcn+MEQQqYoljtjBT94VoNaEOzGeHtkXTEsRZBHh5TSLQBvJQhtZNPqVgM09lclnWy4b0v5XnI4jO0EXSmCcOM3S4IotUsKggyRPZbNSauz05mSfrn2Dgo53u9dQs+SBGED6iMNbESlIMgQ8653SDrE+NAQuimFz7xRjbXFIQdBQrJLSYLQmBaGWikIgsk4Kc1KGmyaEsWEJ22ooWGfBx0//GK5MUsTpIWhVgqC0M6S6emsG4TdA/rPKaIR9nnae17LIgJbBgwni8gQBKl9qJWKICXfIineHjxwvPUwNK1VGEIylCwmQxCExtFQQkPWKKkIQtuwrj06cyNfLQn/kxRS83J8slA+fYAaiiDo+FJJv9dH2ULXpiQIKvOLR56KHMJOcso4VsQCxq6pNkGvAyVdVFqxIQlCW4k3mywCRSLwUhMEtdibuF8i/WarubUkopinEsIH1Zb+mqQ+kAOTpeIyNEFIsEgUlL2Lt3z5DXMQhLulnLRjVMgPizn27BwMOWN4xXbxMwdwX96u69AEQRH8iAk4V4vkIkgqkhwnidA2SQKjzYFeW0Satw69uVwDQeijw0PU8hpIkpMgtI/YYQT57humh0Sp2Fm9NiNIH5V014z196maTUuGVt/pUyj1tbUQhHaxGhObFiAlLrkJgq6kGCBCO16XeCCuEpZemavxls2dpKgW1wQCT7B0nbu9a5+bmgiCsjX4sWOwx7CPCB8lhP0SJtvYUREXF2tgYuRyfFUSJuilBFOgdYQtocv+kk4vcaN196iNIOhbw0TxNEmkc5iS4NOdLGSnAbgDakqjUSNBwLaG6BpW5yPDM1K86I1zeuX1aM39a4vtXCtBwLSGnN1ER2SZccyCB2HJYdwyLK0xvbL0Uc0EocE1hMI8PqQwIDXA2ATyE/RgaCni/BTTyNoJQpvIf8G4dEjBkYgcjDXt11jw2EXSCyQdYakkUdniBoh99G6BILSHtX+ilw8tLw8P1iVDK2K4PyYv7KcMnaICO7KHlnJ8isWrFYLQvqNKOsqsAJQVLuYmJ8aCPlA5oraT7SpbDKke7cIxizfHWT3KDHJpSwQBoBcbo3akBJl1eix13y6JX8NahXzhhCPFm/NaFSjJD8vjSzo9WdrcGkFoK0OtIytKeM9CAjvdWOxaIopY+nFRWZZMMWiEGFdIXXlkfbg4MJdrRlokCODeMYT3rG0zjwh/HVEYiv2w8JMAKbqjphi7uMgyvMPQsilplSCAvGt4kzyjUsRx7sG/AgtZgnh/OrGemKjgHovR423C55JBIjZtDpYRkANvxeakZYJ0YBNihyFX7emLibaI/wabcpw5SJpJXm9M1zlz4CB0lXBcOZyx0WJDj4M5BecW8pm/KZCjuCdgKiaOgSBgccuw/Npiwp5UfVlTPczL+NGyZLuqoj1jIUgH5qFhlavVPHtVPBRGJSAF5LDkSjSqkK742AgCMrjxslKCv4VLOQTIssteFefRyBgJ0nXOweFtsu9oeqvOhoxmOLUI3jEThPYSEodVLjamalzhqfOR30wrFhQYTnGcv1mR9q4aO0G6HmFJlA1GJ0qaZxTbOFykqzcVsTZ3KgRxoliflG3lMf3njcHexiRkagSZJwrLwj5HWf2oXxpiBZBGryZTmiIEnSpBZsEl6SZm15CF3XmXbQgQsZFkpATSSB2grhmMnSD/31XYLkEUjpojnOd8uNjt70hxUs4btVK3E2RxT+FURL5xMhm1kHHJ8rx9N3htkrGJIdS5lsrGVtYJsr5HidHUkeVu6y9v4gribeHKDCk4QxKXBQg4Qfo9FqRI5q2Cuyom93v1Kz7Y1ReGQGxnBFIQYtRlAwScIBuAtOISMsLeWRJvGdIG7GOrLllpdrchAab2kILwpaxGufREwAnSE7A1l+PSygSfNHO8XTh3x55pbyUm1ATYmz+IZ8v/XBIg4ARJAOKGVewWyILJC5+XHZeTdPGKA98KCDDGOF0bQlnuMidIOaz9Tg0i4ARpsNNc5XIIOEHKYe13ahABJ0iDneYql0PACVIOa79Tgwg4QRrsNFe5HAJOkHJY+50aRMAJ0mCnucrlEHCClMPa79QgAk6QBjvNVS6HgBOkHNZ+pwYRcII02GmucjkEnCDlsPY7NYiAE6TBTnOVyyHgBCmHtd+pQQScIA12mqtcDgEnSDms/U4NIuAEabDTXOVyCPwfScDST3bgOVoAAAAASUVORK5CYII=;" parent="1" vertex="1">
          <mxGeometry x="287.5" y="680" width="40" height="40" as="geometry" />
        </mxCell>
        <mxCell id="yaoMZKG-VxOtJUJC3bOf-11" value="" style="shape=image;verticalLabelPosition=bottom;labelBackgroundColor=default;verticalAlign=top;aspect=fixed;imageAspect=0;image=data:image/png,iVBORw0KGgoAAAANSUhEUgAAAMgAAADICAYAAACtWK6eAAAAAXNSR0IArs4c6QAAFnJJREFUeF7tnQnUdVVZx/+KIuJAToUj5gCmhPOAM6moabhSE01WairOE4lWamiaA2QWgjnkhBoOQYoWaKWEmjiQioqKkmSQJpRKDmiErd/77fN1v/vd6exn7332Pud51jrr3Pe9Z+/z7P8+/3v28AyXkYsj4AgsReAyjo0j4AgsR8AJ4k+HI7ACASeIPx6OgBPEnwFHIA4Bf4PE4ealJoKAE2QiHe3NjEPACRKHm5eaCAJOkIl0tDczDgEnSBxuXmoiCDhBJtLR3sw4BJwgcbh5qYkg4ASZSEd7M+MQcILE4ealJoKAE2QiHe3NjEPACRKHm5eaCAJOkIl0tDczDgEnSBxuXmoiCDhB8nf05SVx7BrO3d/L/neppP+ZO3664H/dNZfkb8J07+AE2azvf07SdSVdW9Iekvi7Oy/73H2/2R3ir4Ig31txfH/uu/+U9O+Szpfk5FqDuxNk24PfHdeb+Tz7/yvFP79Vl/yPGbJ0pOnOEIjPF1bdgszKTYUgPy9pn5lj75nPmSFuvvofSfqqpLPDmc/d8YPmWzexN8hNJe23gAxXG3tHDtQ+3jCzhOHzFySdN5A+yW/b8huE+cAdJN0+HHxmPuAyPALMcz4n6fMz5zOHV6u/Bq0Q5CoLyMB8waUdBH62gDSn1q5+zQS5l6R7S7qPpNvWDqTrF4UAy9cflPQhSadJqu4tUxNBbhUIcQ9JHLw1XKaFwLmBLB+XxHHO0M0fkiDXmCPEzYcGw+9fHQKfCkQ5JRCnuIKlCcLE+r6S7hfOPqku3uXN3vCLkj4QDt4uRaQEQfYKZOiIsXuRlvlNxozA6TNkYaUsm+QiCLvQvz7ztrhcthZ4xVNH4B8kvV/SCTn2X1IT5GaSHhOOa02957z9RRFg7+U4SW8N+y9Jbp6KIGzWdcTYLYlmXokjEI9AR5QPx1exraSVIL8SiHGIVREv7whkQIBJPWR5T2zdsQS5i6TDJT0o9sYTLcducufbMevjMf+/7m9gWuQ3MutbMvt5l4niuq7Zn5D0ujD8WnftDt/HEOQpko7pdZdxXMwY9zuSLgjn7vMPJS06sIKd///FmaFgeIthJgdL6LPnRZ+vL4kDkk1B3ijpcX0a2ocgV5d0tKRH9rlBA9deFHZs2bXl+NYcCToi/G8DbYlV8RcCUTrCLDrH1l1bOSyOmRJ8ZhPFNiXIgcFmZpM6a7wGs+yOAP8yR4hJOwT16KybSMKdYNG5RzXVXPpcSUeu02YTgpwk6dfWVVTJ94zdZ02sO5Pr0Tv2DIz/LGn2DcalLRiYYsJy/1XYrSPIOyUdPDD4y27/7TkyQIyzKtV1qmpBkvmjNixeIukFy5RaRZBXSjqsotZ8VtInJX1M0kclfbMi3VyVzRHoCHO3YGlRw4YyIySWhHeSZQR5WpiQb97stFcyL2ASdcYMKb6b9hZeWyUI3C5YdWOrd88BdUIPnrcdZBFBGJP97QCK8nY4OZg1Y+Y85lWjAeBt4pbXkcTm8wHh+MWCWn9ZEk56rGJul3mC8Lr7p7BSUUK3jhRMlvjs4gjMIsDQpzv2LAANRo8HrSLIkyUdm1kRiAAheFs4KTKDPZLqrzpDFAiT02Xi0bM77vNvkI9kGgeyD8GK2LudFCN5ZIdrBsE6urfKyiXaSBXhAMO8LZklCBMkvkwprDhBDA5MNVwcgZQIPFDSoRn26bAxZP9vB4IwtGKIZRWCKh8fSMEwysURyI1AaqKcKOkhswRhcv4lSdY16RcFcmDv4uIIlEYgJVHuzn5bN8RKMTlniW6HJbLS6Pj9HIGAwO9KepkRjS3L344gr5f0eEOFD7M4pRju60UdgWUIMDfBByRWMFu6RUcQHN+3z9x71gi5ntCzjF/uCJRAAFMpTKZi5CfkgOkIQi4IhkgxctcQ3CumrJdxBHIicGfjs7n1BiF3BolUYoWJvftUxKLn5XIjwPYCzn4xchAE2T+Yl8RUQJl1JvOx9Xo5RyAFApbN72fxcBOu500GTZwgBvC8aHYELAQ5hof7hZKOMKjpBDGA50WzI2AhyMk83H+4yqNqA/WdIBuA5JcMhoCFIKfycONy+DyD+k4QA3heNDsCZoKw48jOY6w4QWKR83IlEDAT5BWSnmPQ1AliAM+LZkfATJCjJD3boKYTxACeF82OgJkg1uglTpDlfXzZEFuX+LqrDvKndN9TGy4DfQ5i/rosRsBMkFdJeqYB3TEThLZhKdAde2CfE+LeLvo8/12pVBDEAP5+z4MYw90xZoKZCfJnkp4+IYIQqJloGTeYefCvOUcECMH/OKYgmApxzJKGz7P/Iw7ZN0J0+pYwMRPk1ZKeamhxjW8Q/JYhAceNZj7zN9+5xCNwXiAKZCHOMefu4LvaxEyQ10h6kqFVjJ+HimHFA3/rcJBnneDK/G8q4fwN3ZalKLGRIcvXQljYLk4yfw8lZoK81ujPQQiWHxdo/X6SIAGE6M6M+V3qR4BcKV0g8dkzPhe5xUwQqzchiVqYIKYU8lOQxYrjToEUnj0pJcJ11PWVEAbqtGBRzt+pxUyQv5D0WINWJF8hyYxFeCtAhjuGg6GSy/QQIH4aZCFl2qfDcYkRBjNBMHXH5D1W+LXvOzlj4vwASXgjQoq9Ym/u5UaNAM5OpweivDcyvbOZIG+R9CgDzDcOqxnrqrhuIAXE4PAh0zrE/Pt5BAiqDlH+uocXq5kgbws522K745ckLRs7so/QEYJzzpiqsfp7ufYQYH8GkkCWdZkIzAR5h6TfNGB0S0lnzpVnDsHu/CNCplVD9V7UEViJAEvJEOXNkv51wZVmghAm9OGGTrj9TMbQKwVikNLqCoY6vagj0BcBEixBEja+z50pbCbIuyQR+C1WWH0ipwibjS8NdkqxdXk5R8CKAJvWEOWPAlHMBHmPpIcatGIFDGJc21CHF3UEciDAAtQNDSk9tlxuT5D04BzaeZ2OQOMIbBGECQ75EFwcAUdgRwS2CEKiEDL2uDgCjsACgpAfmj0KF0fAEVhAEDZacuR6c7AdgdYR2BpikXGWJO4ujoAjsOAN8iFJ93FkHAFHYCcEtt4gluQ5jqkjMGYEtghi2WkcMzjeNkfgFAhiteZ1GB2BsSJwLAR5vqQXj7WFjbQL+yG8MjmIcYWXJseVG9F/rGoeBkEwdcfk3aUMArgG/J0k9p8gBOnv8JxbJBCkIwv59lhMObCMmn4XLExSpGBzJFcjwNvhr0hKH4hxthGwq4WMxPeSdJAkPDVd8iCwLwTZU9K38tQ/6VovCmbX+PzPO5SlAoYErFhT/7akvVNV6vVsR2D3Liri30viF8nFjsC3Q85HiHGOvbqNasBRDZJAFiLEuNgROFXSAR1BHifpDfY6J18D/gcvmvNoKw3Kc0NCJOKVucQj8BRJr+kIwi/QF0LYzvgqp1sSF0+IAUFqkFsEkhxSgzIN6sC8EQfAC2YDT+Oi+PsNNmZolWt4ayzD4OCQoBXCuGyOwImSHsLlswTZN7xFNq/Gr3yGpKMrh+Hmkt4tyUmyeUf9VthA34EgFH+5JMawLusRwMmMvYwWxEmyeS8R8IEFjy2Zz+3BxO5j/muzFk1+jc9ae1VdFzhJ1vcHsYHBaXsw9kXJb5jYYZ/lshiBK0q6uFFw6HzeeuRQcdkZgf1DLODt3yzLDvVOSUzwXHZEgL2iDzcOCtEu/7LxNuRQn1XIF85XvIwgN5N0nCSiJrpsQ4CIfZZcjjXh+KeSWGBw2YYAb9WFgUtW5Re8ejCVwN5n6vL+YPc0FhzY98JRjtQTU5djJD1tGQibJOC0ZqBqvQPYQCXqy7+13pA5/RkuYmI0VWEz8HckkeV5qWxCEApPeRNxy+RgpE/RVIdaZwRLg7U/EJsShOfjtmGP5DdG+rAsataXJd2m4VWrdV3FahYZnLAKnor8saTDN21sH4J0dbIrOxWSPEfSUZuC2eh1mBcxQpiCLFypSjHEmq+D5bAjRo7oN8PbY5m331iaz4SdtwimRmMWvDh7e2PGvEE6EPllffaIEe39a9MwFmQDe1XD+q9T/bPhx27ddTt9byEIlX1xxGYps5mzegPbWAHml59pTOc+6kbbzVkJMtah1icl3alPD4zgWmzLSMg6NjHtYVkJgm3Pl8aGaFgCfMUI27WqSa+TdOgI2xz99gALK0Gog/yEGHmNSSA+S7xTkgdK4td2bEJQEkIrRUkKgrCuzI7kWIQ34thXdJb11c/G0omhHbhCmyyXUxDkniG+71iw3YpmMZbG9GwH5heX7Vmm5sv/RhJvxmhJQRCMGse0VzBlglwiaZfop6m+gi+zxllIQRBgOW9EEf6mTJCfSrp8fc95tEaE1T0+unSiSTr3H1MatykT5CeSdrU8UJWVZS5pWmVN9QZhSRS7pTHIlAnyY0m7jaETJV2aYriYiiCPlPT2kQA7ZYL8SBI+92OQz6UIw5qKIPtJ+vwYUJVUkiC7B0/Fu0jaRxKuzix6sKvN0IAd/fcVDC7+A0kYL45BCDxCfCuTpCIISoxlDb0EQcjzQewl3JkhyTphA++9ISj2umst3//3iJL2JAnql5IgY0kGmpMg1w9ztadGPsUnSTpS0scjy68rRjyoq667qJHvsSv7ilXXlAR5nqSXWBWqoHwugpDohtU+hqNWeWymt8n3JO1hVa6C8l9LlS8lJUHuEcbvFeBjUiEHQZj48mt2A5NmOxbGF+eVCeujqv+SRAar1gXDyyemaERKgrA8CMCtr4LkIEiu+dlhiR2dLpR0jRQP1sB14BJO2juzpCQIyhCAixA5LUtqguS0dmbfgvA9n0gE+AWSrpmorqGqYSXuOpJYcDBLaoL8QUgkY1ZswApSEuRPJD0rc1sIhZoqfR5m4a1HOGEh40GpME9NkPtKOiWVcgPVk4ogJd1YnyCJAH9WIb8iaadbFlYIj03VgNQEQS/SJ7Dx1aqkIkhJDz0Cod0uAeCE/yf1WKvCKhzObsmyNucgCJEIiXfaqqQgSMm3R4dzirfI+WH83mrfvVESCWmTSQ6CYCpBPFsmSi1KCoIQBX5lzNcMwETFfZrTg/jD18ugW6kqWSBirymZ5CAIyrXshpuCIEPlV2GfxRJkm2B57Pa3KNGxr1Y1NhdBhhhipOrUFAQZasONMP6W4S0+3HulArJwPc/PEUI1F0HAho2arVS6jYmVIJiU4GE5hLCsbAmg8Q1JNxxC8QT3zBKJJidBsFTFVLs1sRJkyCAW5Gx/jAHwcyTdyFB+qKJ/LunJOW6ekyDo+8GYgME5GtqjTitBWEV5Q4/7pbzUFEVQEkZ+N0mpUIG6SKh6h7AwlPx2uQnyMEnvSq513gqtBMH1eKiojCSEwdckVs6WdNPYwgOVI+g2NmlZJDdBUPofJd09i/Z5KrUS5MGSTsij2tpa+TF6+Nqrll+AxTGeja0IG4MEGf96LoVLEORRkhgbtyJWggzpfmwdixNuFbffVsQc92pdQ0sQBB0+1VBKaStBMPcn+MEQQqYoljtjBT94VoNaEOzGeHtkXTEsRZBHh5TSLQBvJQhtZNPqVgM09lclnWy4b0v5XnI4jO0EXSmCcOM3S4IotUsKggyRPZbNSauz05mSfrn2Dgo53u9dQs+SBGED6iMNbESlIMgQ8653SDrE+NAQuimFz7xRjbXFIQdBQrJLSYLQmBaGWikIgsk4Kc1KGmyaEsWEJ22ooWGfBx0//GK5MUsTpIWhVgqC0M6S6emsG4TdA/rPKaIR9nnae17LIgJbBgwni8gQBKl9qJWKICXfIineHjxwvPUwNK1VGEIylCwmQxCExtFQQkPWKKkIQtuwrj06cyNfLQn/kxRS83J8slA+fYAaiiDo+FJJv9dH2ULXpiQIKvOLR56KHMJOcso4VsQCxq6pNkGvAyVdVFqxIQlCW4k3mywCRSLwUhMEtdibuF8i/WarubUkopinEsIH1Zb+mqQ+kAOTpeIyNEFIsEgUlL2Lt3z5DXMQhLulnLRjVMgPizn27BwMOWN4xXbxMwdwX96u69AEQRH8iAk4V4vkIkgqkhwnidA2SQKjzYFeW0Satw69uVwDQeijw0PU8hpIkpMgtI/YYQT57humh0Sp2Fm9NiNIH5V014z196maTUuGVt/pUyj1tbUQhHaxGhObFiAlLrkJgq6kGCBCO16XeCCuEpZemavxls2dpKgW1wQCT7B0nbu9a5+bmgiCsjX4sWOwx7CPCB8lhP0SJtvYUREXF2tgYuRyfFUSJuilBFOgdYQtocv+kk4vcaN196iNIOhbw0TxNEmkc5iS4NOdLGSnAbgDakqjUSNBwLaG6BpW5yPDM1K86I1zeuX1aM39a4vtXCtBwLSGnN1ER2SZccyCB2HJYdwyLK0xvbL0Uc0EocE1hMI8PqQwIDXA2ATyE/RgaCni/BTTyNoJQpvIf8G4dEjBkYgcjDXt11jw2EXSCyQdYakkUdniBoh99G6BILSHtX+ilw8tLw8P1iVDK2K4PyYv7KcMnaICO7KHlnJ8isWrFYLQvqNKOsqsAJQVLuYmJ8aCPlA5oraT7SpbDKke7cIxizfHWT3KDHJpSwQBoBcbo3akBJl1eix13y6JX8NahXzhhCPFm/NaFSjJD8vjSzo9WdrcGkFoK0OtIytKeM9CAjvdWOxaIopY+nFRWZZMMWiEGFdIXXlkfbg4MJdrRlokCODeMYT3rG0zjwh/HVEYiv2w8JMAKbqjphi7uMgyvMPQsilplSCAvGt4kzyjUsRx7sG/AgtZgnh/OrGemKjgHovR423C55JBIjZtDpYRkANvxeakZYJ0YBNihyFX7emLibaI/wabcpw5SJpJXm9M1zlz4CB0lXBcOZyx0WJDj4M5BecW8pm/KZCjuCdgKiaOgSBgccuw/Npiwp5UfVlTPczL+NGyZLuqoj1jIUgH5qFhlavVPHtVPBRGJSAF5LDkSjSqkK742AgCMrjxslKCv4VLOQTIssteFefRyBgJ0nXOweFtsu9oeqvOhoxmOLUI3jEThPYSEodVLjamalzhqfOR30wrFhQYTnGcv1mR9q4aO0G6HmFJlA1GJ0qaZxTbOFykqzcVsTZ3KgRxoliflG3lMf3njcHexiRkagSZJwrLwj5HWf2oXxpiBZBGryZTmiIEnSpBZsEl6SZm15CF3XmXbQgQsZFkpATSSB2grhmMnSD/31XYLkEUjpojnOd8uNjt70hxUs4btVK3E2RxT+FURL5xMhm1kHHJ8rx9N3htkrGJIdS5lsrGVtYJsr5HidHUkeVu6y9v4gribeHKDCk4QxKXBQg4Qfo9FqRI5q2Cuyom93v1Kz7Y1ReGQGxnBFIQYtRlAwScIBuAtOISMsLeWRJvGdIG7GOrLllpdrchAab2kILwpaxGufREwAnSE7A1l+PSygSfNHO8XTh3x55pbyUm1ATYmz+IZ8v/XBIg4ARJAOKGVewWyILJC5+XHZeTdPGKA98KCDDGOF0bQlnuMidIOaz9Tg0i4ARpsNNc5XIIOEHKYe13ahABJ0iDneYql0PACVIOa79Tgwg4QRrsNFe5HAJOkHJY+50aRMAJ0mCnucrlEHCClMPa79QgAk6QBjvNVS6HgBOkHNZ+pwYRcII02GmucjkEnCDlsPY7NYiAE6TBTnOVyyHgBCmHtd+pQQScIA12mqtcDgEnSDms/U4NIuAEabDTXOVyCPwfScDST3bgOVoAAAAASUVORK5CYII=;" parent="1" vertex="1">
          <mxGeometry x="380" y="680" width="40" height="40" as="geometry" />
        </mxCell>
        <mxCell id="yaoMZKG-VxOtJUJC3bOf-12" value="" style="endArrow=classic;html=1;rounded=0;exitX=0.5;exitY=0.98;exitDx=0;exitDy=0;exitPerimeter=0;entryX=0.5;entryY=0;entryDx=0;entryDy=0;" parent="1" source="yaoMZKG-VxOtJUJC3bOf-3" target="yaoMZKG-VxOtJUJC3bOf-7" edge="1">
          <mxGeometry width="50" height="50" relative="1" as="geometry">
            <mxPoint x="80" y="660" as="sourcePoint" />
            <mxPoint x="130" y="610" as="targetPoint" />
            <Array as="points">
              <mxPoint x="60" y="620" />
            </Array>
          </mxGeometry>
        </mxCell>
        <mxCell id="yaoMZKG-VxOtJUJC3bOf-13" value="" style="endArrow=classic;html=1;rounded=0;entryX=0.5;entryY=0;entryDx=0;entryDy=0;" parent="1" target="yaoMZKG-VxOtJUJC3bOf-8" edge="1">
          <mxGeometry width="50" height="50" relative="1" as="geometry">
            <mxPoint x="300" y="610" as="sourcePoint" />
            <mxPoint x="70" y="690" as="targetPoint" />
            <Array as="points">
              <mxPoint x="130" y="640" />
            </Array>
          </mxGeometry>
        </mxCell>
        <mxCell id="yaoMZKG-VxOtJUJC3bOf-14" value="" style="endArrow=classic;html=1;rounded=0;entryX=0.5;entryY=0;entryDx=0;entryDy=0;" parent="1" target="yaoMZKG-VxOtJUJC3bOf-9" edge="1">
          <mxGeometry width="50" height="50" relative="1" as="geometry">
            <mxPoint x="300" y="610" as="sourcePoint" />
            <mxPoint x="80" y="700" as="targetPoint" />
            <Array as="points">
              <mxPoint x="215" y="640" />
            </Array>
          </mxGeometry>
        </mxCell>
        <mxCell id="yaoMZKG-VxOtJUJC3bOf-15" value="" style="endArrow=classic;html=1;rounded=0;exitX=0.5;exitY=0.98;exitDx=0;exitDy=0;exitPerimeter=0;entryX=0.5;entryY=0;entryDx=0;entryDy=0;" parent="1" source="yaoMZKG-VxOtJUJC3bOf-3" target="yaoMZKG-VxOtJUJC3bOf-10" edge="1">
          <mxGeometry width="50" height="50" relative="1" as="geometry">
            <mxPoint x="337.5" y="638.8" as="sourcePoint" />
            <mxPoint x="90" y="710" as="targetPoint" />
            <Array as="points" />
          </mxGeometry>
        </mxCell>
        <mxCell id="yaoMZKG-VxOtJUJC3bOf-16" value="" style="endArrow=classic;html=1;rounded=0;exitX=0.5;exitY=0.98;exitDx=0;exitDy=0;exitPerimeter=0;entryX=0.5;entryY=0;entryDx=0;entryDy=0;" parent="1" edge="1">
          <mxGeometry width="50" height="50" relative="1" as="geometry">
            <mxPoint x="307.5" y="608.8" as="sourcePoint" />
            <mxPoint x="60" y="680" as="targetPoint" />
            <Array as="points">
              <mxPoint x="60" y="620" />
            </Array>
          </mxGeometry>
        </mxCell>
        <mxCell id="yaoMZKG-VxOtJUJC3bOf-17" value="" style="endArrow=classic;html=1;rounded=0;entryX=0.5;entryY=0;entryDx=0;entryDy=0;" parent="1" target="yaoMZKG-VxOtJUJC3bOf-11" edge="1">
          <mxGeometry width="50" height="50" relative="1" as="geometry">
            <mxPoint x="310" y="610" as="sourcePoint" />
            <mxPoint x="70" y="690" as="targetPoint" />
            <Array as="points">
              <mxPoint x="400" y="640" />
            </Array>
          </mxGeometry>
        </mxCell>
        <mxCell id="yaoMZKG-VxOtJUJC3bOf-18" value="" style="shape=image;verticalLabelPosition=bottom;labelBackgroundColor=default;verticalAlign=top;aspect=fixed;imageAspect=0;image=data:image/png,iVBORw0KGgoAAAANSUhEUgAAAMgAAADICAYAAACtWK6eAAAAAXNSR0IArs4c6QAAFnJJREFUeF7tnQnUdVVZx/+KIuJAToUj5gCmhPOAM6moabhSE01WairOE4lWamiaA2QWgjnkhBoOQYoWaKWEmjiQioqKkmSQJpRKDmiErd/77fN1v/vd6exn7332Pud51jrr3Pe9Z+/z7P8+/3v28AyXkYsj4AgsReAyjo0j4AgsR8AJ4k+HI7ACASeIPx6OgBPEnwFHIA4Bf4PE4ealJoKAE2QiHe3NjEPACRKHm5eaCAJOkIl0tDczDgEnSBxuXmoiCDhBJtLR3sw4BJwgcbh5qYkg4ASZSEd7M+MQcILE4ealJoKAE2QiHe3NjEPACRKHm5eaCAJOkIl0tDczDgEnSBxuXmoiCDhB8nf05SVx7BrO3d/L/neppP+ZO3664H/dNZfkb8J07+AE2azvf07SdSVdW9Iekvi7Oy/73H2/2R3ir4Ig31txfH/uu/+U9O+Szpfk5FqDuxNk24PfHdeb+Tz7/yvFP79Vl/yPGbJ0pOnOEIjPF1bdgszKTYUgPy9pn5lj75nPmSFuvvofSfqqpLPDmc/d8YPmWzexN8hNJe23gAxXG3tHDtQ+3jCzhOHzFySdN5A+yW/b8huE+cAdJN0+HHxmPuAyPALMcz4n6fMz5zOHV6u/Bq0Q5CoLyMB8waUdBH62gDSn1q5+zQS5l6R7S7qPpNvWDqTrF4UAy9cflPQhSadJqu4tUxNBbhUIcQ9JHLw1XKaFwLmBLB+XxHHO0M0fkiDXmCPEzYcGw+9fHQKfCkQ5JRCnuIKlCcLE+r6S7hfOPqku3uXN3vCLkj4QDt4uRaQEQfYKZOiIsXuRlvlNxozA6TNkYaUsm+QiCLvQvz7ztrhcthZ4xVNH4B8kvV/SCTn2X1IT5GaSHhOOa02957z9RRFg7+U4SW8N+y9Jbp6KIGzWdcTYLYlmXokjEI9AR5QPx1exraSVIL8SiHGIVREv7whkQIBJPWR5T2zdsQS5i6TDJT0o9sYTLcducufbMevjMf+/7m9gWuQ3MutbMvt5l4niuq7Zn5D0ujD8WnftDt/HEOQpko7pdZdxXMwY9zuSLgjn7vMPJS06sIKd///FmaFgeIthJgdL6LPnRZ+vL4kDkk1B3ijpcX0a2ocgV5d0tKRH9rlBA9deFHZs2bXl+NYcCToi/G8DbYlV8RcCUTrCLDrH1l1bOSyOmRJ8ZhPFNiXIgcFmZpM6a7wGs+yOAP8yR4hJOwT16KybSMKdYNG5RzXVXPpcSUeu02YTgpwk6dfWVVTJ94zdZ02sO5Pr0Tv2DIz/LGn2DcalLRiYYsJy/1XYrSPIOyUdPDD4y27/7TkyQIyzKtV1qmpBkvmjNixeIukFy5RaRZBXSjqsotZ8VtInJX1M0kclfbMi3VyVzRHoCHO3YGlRw4YyIySWhHeSZQR5WpiQb97stFcyL2ASdcYMKb6b9hZeWyUI3C5YdWOrd88BdUIPnrcdZBFBGJP97QCK8nY4OZg1Y+Y85lWjAeBt4pbXkcTm8wHh+MWCWn9ZEk56rGJul3mC8Lr7p7BSUUK3jhRMlvjs4gjMIsDQpzv2LAANRo8HrSLIkyUdm1kRiAAheFs4KTKDPZLqrzpDFAiT02Xi0bM77vNvkI9kGgeyD8GK2LudFCN5ZIdrBsE6urfKyiXaSBXhAMO8LZklCBMkvkwprDhBDA5MNVwcgZQIPFDSoRn26bAxZP9vB4IwtGKIZRWCKh8fSMEwysURyI1AaqKcKOkhswRhcv4lSdY16RcFcmDv4uIIlEYgJVHuzn5bN8RKMTlniW6HJbLS6Pj9HIGAwO9KepkRjS3L344gr5f0eEOFD7M4pRju60UdgWUIMDfBByRWMFu6RUcQHN+3z9x71gi5ntCzjF/uCJRAAFMpTKZi5CfkgOkIQi4IhkgxctcQ3CumrJdxBHIicGfjs7n1BiF3BolUYoWJvftUxKLn5XIjwPYCzn4xchAE2T+Yl8RUQJl1JvOx9Xo5RyAFApbN72fxcBOu500GTZwgBvC8aHYELAQ5hof7hZKOMKjpBDGA50WzI2AhyMk83H+4yqNqA/WdIBuA5JcMhoCFIKfycONy+DyD+k4QA3heNDsCZoKw48jOY6w4QWKR83IlEDAT5BWSnmPQ1AliAM+LZkfATJCjJD3boKYTxACeF82OgJkg1uglTpDlfXzZEFuX+LqrDvKndN9TGy4DfQ5i/rosRsBMkFdJeqYB3TEThLZhKdAde2CfE+LeLvo8/12pVBDEAP5+z4MYw90xZoKZCfJnkp4+IYIQqJloGTeYefCvOUcECMH/OKYgmApxzJKGz7P/Iw7ZN0J0+pYwMRPk1ZKeamhxjW8Q/JYhAceNZj7zN9+5xCNwXiAKZCHOMefu4LvaxEyQ10h6kqFVjJ+HimHFA3/rcJBnneDK/G8q4fwN3ZalKLGRIcvXQljYLk4yfw8lZoK81ujPQQiWHxdo/X6SIAGE6M6M+V3qR4BcKV0g8dkzPhe5xUwQqzchiVqYIKYU8lOQxYrjToEUnj0pJcJ11PWVEAbqtGBRzt+pxUyQv5D0WINWJF8hyYxFeCtAhjuGg6GSy/QQIH4aZCFl2qfDcYkRBjNBMHXH5D1W+LXvOzlj4vwASXgjQoq9Ym/u5UaNAM5OpweivDcyvbOZIG+R9CgDzDcOqxnrqrhuIAXE4PAh0zrE/Pt5BAiqDlH+uocXq5kgbws522K745ckLRs7so/QEYJzzpiqsfp7ufYQYH8GkkCWdZkIzAR5h6TfNGB0S0lnzpVnDsHu/CNCplVD9V7UEViJAEvJEOXNkv51wZVmghAm9OGGTrj9TMbQKwVikNLqCoY6vagj0BcBEixBEja+z50pbCbIuyQR+C1WWH0ipwibjS8NdkqxdXk5R8CKAJvWEOWPAlHMBHmPpIcatGIFDGJc21CHF3UEciDAAtQNDSk9tlxuT5D04BzaeZ2OQOMIbBGECQ75EFwcAUdgRwS2CEKiEDL2uDgCjsACgpAfmj0KF0fAEVhAEDZacuR6c7AdgdYR2BpikXGWJO4ujoAjsOAN8iFJ93FkHAFHYCcEtt4gluQ5jqkjMGYEtghi2WkcMzjeNkfgFAhiteZ1GB2BsSJwLAR5vqQXj7WFjbQL+yG8MjmIcYWXJseVG9F/rGoeBkEwdcfk3aUMArgG/J0k9p8gBOnv8JxbJBCkIwv59lhMObCMmn4XLExSpGBzJFcjwNvhr0hKH4hxthGwq4WMxPeSdJAkPDVd8iCwLwTZU9K38tQ/6VovCmbX+PzPO5SlAoYErFhT/7akvVNV6vVsR2D3Liri30viF8nFjsC3Q85HiHGOvbqNasBRDZJAFiLEuNgROFXSAR1BHifpDfY6J18D/gcvmvNoKw3Kc0NCJOKVucQj8BRJr+kIwi/QF0LYzvgqp1sSF0+IAUFqkFsEkhxSgzIN6sC8EQfAC2YDT+Oi+PsNNmZolWt4ayzD4OCQoBXCuGyOwImSHsLlswTZN7xFNq/Gr3yGpKMrh+Hmkt4tyUmyeUf9VthA34EgFH+5JMawLusRwMmMvYwWxEmyeS8R8IEFjy2Zz+3BxO5j/muzFk1+jc9ae1VdFzhJ1vcHsYHBaXsw9kXJb5jYYZ/lshiBK0q6uFFw6HzeeuRQcdkZgf1DLODt3yzLDvVOSUzwXHZEgL2iDzcOCtEu/7LxNuRQn1XIF85XvIwgN5N0nCSiJrpsQ4CIfZZcjjXh+KeSWGBw2YYAb9WFgUtW5Re8ejCVwN5n6vL+YPc0FhzY98JRjtQTU5djJD1tGQibJOC0ZqBqvQPYQCXqy7+13pA5/RkuYmI0VWEz8HckkeV5qWxCEApPeRNxy+RgpE/RVIdaZwRLg7U/EJsShOfjtmGP5DdG+rAsataXJd2m4VWrdV3FahYZnLAKnor8saTDN21sH4J0dbIrOxWSPEfSUZuC2eh1mBcxQpiCLFypSjHEmq+D5bAjRo7oN8PbY5m331iaz4SdtwimRmMWvDh7e2PGvEE6EPllffaIEe39a9MwFmQDe1XD+q9T/bPhx27ddTt9byEIlX1xxGYps5mzegPbWAHml59pTOc+6kbbzVkJMtah1icl3alPD4zgWmzLSMg6NjHtYVkJgm3Pl8aGaFgCfMUI27WqSa+TdOgI2xz99gALK0Gog/yEGHmNSSA+S7xTkgdK4td2bEJQEkIrRUkKgrCuzI7kWIQ34thXdJb11c/G0omhHbhCmyyXUxDkniG+71iw3YpmMZbG9GwH5heX7Vmm5sv/RhJvxmhJQRCMGse0VzBlglwiaZfop6m+gi+zxllIQRBgOW9EEf6mTJCfSrp8fc95tEaE1T0+unSiSTr3H1MatykT5CeSdrU8UJWVZS5pWmVN9QZhSRS7pTHIlAnyY0m7jaETJV2aYriYiiCPlPT2kQA7ZYL8SBI+92OQz6UIw5qKIPtJ+vwYUJVUkiC7B0/Fu0jaRxKuzix6sKvN0IAd/fcVDC7+A0kYL45BCDxCfCuTpCIISoxlDb0EQcjzQewl3JkhyTphA++9ISj2umst3//3iJL2JAnql5IgY0kGmpMg1w9ztadGPsUnSTpS0scjy68rRjyoq667qJHvsSv7ilXXlAR5nqSXWBWqoHwugpDohtU+hqNWeWymt8n3JO1hVa6C8l9LlS8lJUHuEcbvFeBjUiEHQZj48mt2A5NmOxbGF+eVCeujqv+SRAar1gXDyyemaERKgrA8CMCtr4LkIEiu+dlhiR2dLpR0jRQP1sB14BJO2juzpCQIyhCAixA5LUtqguS0dmbfgvA9n0gE+AWSrpmorqGqYSXuOpJYcDBLaoL8QUgkY1ZswApSEuRPJD0rc1sIhZoqfR5m4a1HOGEh40GpME9NkPtKOiWVcgPVk4ogJd1YnyCJAH9WIb8iaadbFlYIj03VgNQEQS/SJ7Dx1aqkIkhJDz0Cod0uAeCE/yf1WKvCKhzObsmyNucgCJEIiXfaqqQgSMm3R4dzirfI+WH83mrfvVESCWmTSQ6CYCpBPFsmSi1KCoIQBX5lzNcMwETFfZrTg/jD18ugW6kqWSBirymZ5CAIyrXshpuCIEPlV2GfxRJkm2B57Pa3KNGxr1Y1NhdBhhhipOrUFAQZasONMP6W4S0+3HulArJwPc/PEUI1F0HAho2arVS6jYmVIJiU4GE5hLCsbAmg8Q1JNxxC8QT3zBKJJidBsFTFVLs1sRJkyCAW5Gx/jAHwcyTdyFB+qKJ/LunJOW6ekyDo+8GYgME5GtqjTitBWEV5Q4/7pbzUFEVQEkZ+N0mpUIG6SKh6h7AwlPx2uQnyMEnvSq513gqtBMH1eKiojCSEwdckVs6WdNPYwgOVI+g2NmlZJDdBUPofJd09i/Z5KrUS5MGSTsij2tpa+TF6+Nqrll+AxTGeja0IG4MEGf96LoVLEORRkhgbtyJWggzpfmwdixNuFbffVsQc92pdQ0sQBB0+1VBKaStBMPcn+MEQQqYoljtjBT94VoNaEOzGeHtkXTEsRZBHh5TSLQBvJQhtZNPqVgM09lclnWy4b0v5XnI4jO0EXSmCcOM3S4IotUsKggyRPZbNSauz05mSfrn2Dgo53u9dQs+SBGED6iMNbESlIMgQ8653SDrE+NAQuimFz7xRjbXFIQdBQrJLSYLQmBaGWikIgsk4Kc1KGmyaEsWEJ22ooWGfBx0//GK5MUsTpIWhVgqC0M6S6emsG4TdA/rPKaIR9nnae17LIgJbBgwni8gQBKl9qJWKICXfIineHjxwvPUwNK1VGEIylCwmQxCExtFQQkPWKKkIQtuwrj06cyNfLQn/kxRS83J8slA+fYAaiiDo+FJJv9dH2ULXpiQIKvOLR56KHMJOcso4VsQCxq6pNkGvAyVdVFqxIQlCW4k3mywCRSLwUhMEtdibuF8i/WarubUkopinEsIH1Zb+mqQ+kAOTpeIyNEFIsEgUlL2Lt3z5DXMQhLulnLRjVMgPizn27BwMOWN4xXbxMwdwX96u69AEQRH8iAk4V4vkIkgqkhwnidA2SQKjzYFeW0Satw69uVwDQeijw0PU8hpIkpMgtI/YYQT57humh0Sp2Fm9NiNIH5V014z196maTUuGVt/pUyj1tbUQhHaxGhObFiAlLrkJgq6kGCBCO16XeCCuEpZemavxls2dpKgW1wQCT7B0nbu9a5+bmgiCsjX4sWOwx7CPCB8lhP0SJtvYUREXF2tgYuRyfFUSJuilBFOgdYQtocv+kk4vcaN196iNIOhbw0TxNEmkc5iS4NOdLGSnAbgDakqjUSNBwLaG6BpW5yPDM1K86I1zeuX1aM39a4vtXCtBwLSGnN1ER2SZccyCB2HJYdwyLK0xvbL0Uc0EocE1hMI8PqQwIDXA2ATyE/RgaCni/BTTyNoJQpvIf8G4dEjBkYgcjDXt11jw2EXSCyQdYakkUdniBoh99G6BILSHtX+ilw8tLw8P1iVDK2K4PyYv7KcMnaICO7KHlnJ8isWrFYLQvqNKOsqsAJQVLuYmJ8aCPlA5oraT7SpbDKke7cIxizfHWT3KDHJpSwQBoBcbo3akBJl1eix13y6JX8NahXzhhCPFm/NaFSjJD8vjSzo9WdrcGkFoK0OtIytKeM9CAjvdWOxaIopY+nFRWZZMMWiEGFdIXXlkfbg4MJdrRlokCODeMYT3rG0zjwh/HVEYiv2w8JMAKbqjphi7uMgyvMPQsilplSCAvGt4kzyjUsRx7sG/AgtZgnh/OrGemKjgHovR423C55JBIjZtDpYRkANvxeakZYJ0YBNihyFX7emLibaI/wabcpw5SJpJXm9M1zlz4CB0lXBcOZyx0WJDj4M5BecW8pm/KZCjuCdgKiaOgSBgccuw/Npiwp5UfVlTPczL+NGyZLuqoj1jIUgH5qFhlavVPHtVPBRGJSAF5LDkSjSqkK742AgCMrjxslKCv4VLOQTIssteFefRyBgJ0nXOweFtsu9oeqvOhoxmOLUI3jEThPYSEodVLjamalzhqfOR30wrFhQYTnGcv1mR9q4aO0G6HmFJlA1GJ0qaZxTbOFykqzcVsTZ3KgRxoliflG3lMf3njcHexiRkagSZJwrLwj5HWf2oXxpiBZBGryZTmiIEnSpBZsEl6SZm15CF3XmXbQgQsZFkpATSSB2grhmMnSD/31XYLkEUjpojnOd8uNjt70hxUs4btVK3E2RxT+FURL5xMhm1kHHJ8rx9N3htkrGJIdS5lsrGVtYJsr5HidHUkeVu6y9v4gribeHKDCk4QxKXBQg4Qfo9FqRI5q2Cuyom93v1Kz7Y1ReGQGxnBFIQYtRlAwScIBuAtOISMsLeWRJvGdIG7GOrLllpdrchAab2kILwpaxGufREwAnSE7A1l+PSygSfNHO8XTh3x55pbyUm1ATYmz+IZ8v/XBIg4ARJAOKGVewWyILJC5+XHZeTdPGKA98KCDDGOF0bQlnuMidIOaz9Tg0i4ARpsNNc5XIIOEHKYe13ahABJ0iDneYql0PACVIOa79Tgwg4QRrsNFe5HAJOkHJY+50aRMAJ0mCnucrlEHCClMPa79QgAk6QBjvNVS6HgBOkHNZ+pwYRcII02GmucjkEnCDlsPY7NYiAE6TBTnOVyyHgBCmHtd+pQQScIA12mqtcDgEnSDms/U4NIuAEabDTXOVyCPwfScDST3bgOVoAAAAASUVORK5CYII=;" parent="1" vertex="1">
          <mxGeometry x="470" y="680" width="40" height="40" as="geometry" />
        </mxCell>
        <mxCell id="yaoMZKG-VxOtJUJC3bOf-19" value="" style="endArrow=classic;html=1;rounded=0;entryX=0.5;entryY=0;entryDx=0;entryDy=0;exitX=0.5;exitY=0.98;exitDx=0;exitDy=0;exitPerimeter=0;" parent="1" source="yaoMZKG-VxOtJUJC3bOf-3" target="yaoMZKG-VxOtJUJC3bOf-18" edge="1">
          <mxGeometry width="50" height="50" relative="1" as="geometry">
            <mxPoint x="320" y="620" as="sourcePoint" />
            <mxPoint x="410" y="690" as="targetPoint" />
            <Array as="points">
              <mxPoint x="490" y="640" />
            </Array>
          </mxGeometry>
        </mxCell>
        <mxCell id="yaoMZKG-VxOtJUJC3bOf-20" value="" style="shape=image;verticalLabelPosition=bottom;labelBackgroundColor=default;verticalAlign=top;aspect=fixed;imageAspect=0;image=data:image/png,iVBORw0KGgoAAAANSUhEUgAAAMgAAADICAYAAACtWK6eAAAAAXNSR0IArs4c6QAAFnJJREFUeF7tnQnUdVVZx/+KIuJAToUj5gCmhPOAM6moabhSE01WairOE4lWamiaA2QWgjnkhBoOQYoWaKWEmjiQioqKkmSQJpRKDmiErd/77fN1v/vd6exn7332Pud51jrr3Pe9Z+/z7P8+/3v28AyXkYsj4AgsReAyjo0j4AgsR8AJ4k+HI7ACASeIPx6OgBPEnwFHIA4Bf4PE4ealJoKAE2QiHe3NjEPACRKHm5eaCAJOkIl0tDczDgEnSBxuXmoiCDhBJtLR3sw4BJwgcbh5qYkg4ASZSEd7M+MQcILE4ealJoKAE2QiHe3NjEPACRKHm5eaCAJOkIl0tDczDgEnSBxuXmoiCDhB8nf05SVx7BrO3d/L/neppP+ZO3664H/dNZfkb8J07+AE2azvf07SdSVdW9Iekvi7Oy/73H2/2R3ir4Ig31txfH/uu/+U9O+Szpfk5FqDuxNk24PfHdeb+Tz7/yvFP79Vl/yPGbJ0pOnOEIjPF1bdgszKTYUgPy9pn5lj75nPmSFuvvofSfqqpLPDmc/d8YPmWzexN8hNJe23gAxXG3tHDtQ+3jCzhOHzFySdN5A+yW/b8huE+cAdJN0+HHxmPuAyPALMcz4n6fMz5zOHV6u/Bq0Q5CoLyMB8waUdBH62gDSn1q5+zQS5l6R7S7qPpNvWDqTrF4UAy9cflPQhSadJqu4tUxNBbhUIcQ9JHLw1XKaFwLmBLB+XxHHO0M0fkiDXmCPEzYcGw+9fHQKfCkQ5JRCnuIKlCcLE+r6S7hfOPqku3uXN3vCLkj4QDt4uRaQEQfYKZOiIsXuRlvlNxozA6TNkYaUsm+QiCLvQvz7ztrhcthZ4xVNH4B8kvV/SCTn2X1IT5GaSHhOOa02957z9RRFg7+U4SW8N+y9Jbp6KIGzWdcTYLYlmXokjEI9AR5QPx1exraSVIL8SiHGIVREv7whkQIBJPWR5T2zdsQS5i6TDJT0o9sYTLcducufbMevjMf+/7m9gWuQ3MutbMvt5l4niuq7Zn5D0ujD8WnftDt/HEOQpko7pdZdxXMwY9zuSLgjn7vMPJS06sIKd///FmaFgeIthJgdL6LPnRZ+vL4kDkk1B3ijpcX0a2ocgV5d0tKRH9rlBA9deFHZs2bXl+NYcCToi/G8DbYlV8RcCUTrCLDrH1l1bOSyOmRJ8ZhPFNiXIgcFmZpM6a7wGs+yOAP8yR4hJOwT16KybSMKdYNG5RzXVXPpcSUeu02YTgpwk6dfWVVTJ94zdZ02sO5Pr0Tv2DIz/LGn2DcalLRiYYsJy/1XYrSPIOyUdPDD4y27/7TkyQIyzKtV1qmpBkvmjNixeIukFy5RaRZBXSjqsotZ8VtInJX1M0kclfbMi3VyVzRHoCHO3YGlRw4YyIySWhHeSZQR5WpiQb97stFcyL2ASdcYMKb6b9hZeWyUI3C5YdWOrd88BdUIPnrcdZBFBGJP97QCK8nY4OZg1Y+Y85lWjAeBt4pbXkcTm8wHh+MWCWn9ZEk56rGJul3mC8Lr7p7BSUUK3jhRMlvjs4gjMIsDQpzv2LAANRo8HrSLIkyUdm1kRiAAheFs4KTKDPZLqrzpDFAiT02Xi0bM77vNvkI9kGgeyD8GK2LudFCN5ZIdrBsE6urfKyiXaSBXhAMO8LZklCBMkvkwprDhBDA5MNVwcgZQIPFDSoRn26bAxZP9vB4IwtGKIZRWCKh8fSMEwysURyI1AaqKcKOkhswRhcv4lSdY16RcFcmDv4uIIlEYgJVHuzn5bN8RKMTlniW6HJbLS6Pj9HIGAwO9KepkRjS3L344gr5f0eEOFD7M4pRju60UdgWUIMDfBByRWMFu6RUcQHN+3z9x71gi5ntCzjF/uCJRAAFMpTKZi5CfkgOkIQi4IhkgxctcQ3CumrJdxBHIicGfjs7n1BiF3BolUYoWJvftUxKLn5XIjwPYCzn4xchAE2T+Yl8RUQJl1JvOx9Xo5RyAFApbN72fxcBOu500GTZwgBvC8aHYELAQ5hof7hZKOMKjpBDGA50WzI2AhyMk83H+4yqNqA/WdIBuA5JcMhoCFIKfycONy+DyD+k4QA3heNDsCZoKw48jOY6w4QWKR83IlEDAT5BWSnmPQ1AliAM+LZkfATJCjJD3boKYTxACeF82OgJkg1uglTpDlfXzZEFuX+LqrDvKndN9TGy4DfQ5i/rosRsBMkFdJeqYB3TEThLZhKdAde2CfE+LeLvo8/12pVBDEAP5+z4MYw90xZoKZCfJnkp4+IYIQqJloGTeYefCvOUcECMH/OKYgmApxzJKGz7P/Iw7ZN0J0+pYwMRPk1ZKeamhxjW8Q/JYhAceNZj7zN9+5xCNwXiAKZCHOMefu4LvaxEyQ10h6kqFVjJ+HimHFA3/rcJBnneDK/G8q4fwN3ZalKLGRIcvXQljYLk4yfw8lZoK81ujPQQiWHxdo/X6SIAGE6M6M+V3qR4BcKV0g8dkzPhe5xUwQqzchiVqYIKYU8lOQxYrjToEUnj0pJcJ11PWVEAbqtGBRzt+pxUyQv5D0WINWJF8hyYxFeCtAhjuGg6GSy/QQIH4aZCFl2qfDcYkRBjNBMHXH5D1W+LXvOzlj4vwASXgjQoq9Ym/u5UaNAM5OpweivDcyvbOZIG+R9CgDzDcOqxnrqrhuIAXE4PAh0zrE/Pt5BAiqDlH+uocXq5kgbws522K745ckLRs7so/QEYJzzpiqsfp7ufYQYH8GkkCWdZkIzAR5h6TfNGB0S0lnzpVnDsHu/CNCplVD9V7UEViJAEvJEOXNkv51wZVmghAm9OGGTrj9TMbQKwVikNLqCoY6vagj0BcBEixBEja+z50pbCbIuyQR+C1WWH0ipwibjS8NdkqxdXk5R8CKAJvWEOWPAlHMBHmPpIcatGIFDGJc21CHF3UEciDAAtQNDSk9tlxuT5D04BzaeZ2OQOMIbBGECQ75EFwcAUdgRwS2CEKiEDL2uDgCjsACgpAfmj0KF0fAEVhAEDZacuR6c7AdgdYR2BpikXGWJO4ujoAjsOAN8iFJ93FkHAFHYCcEtt4gluQ5jqkjMGYEtghi2WkcMzjeNkfgFAhiteZ1GB2BsSJwLAR5vqQXj7WFjbQL+yG8MjmIcYWXJseVG9F/rGoeBkEwdcfk3aUMArgG/J0k9p8gBOnv8JxbJBCkIwv59lhMObCMmn4XLExSpGBzJFcjwNvhr0hKH4hxthGwq4WMxPeSdJAkPDVd8iCwLwTZU9K38tQ/6VovCmbX+PzPO5SlAoYErFhT/7akvVNV6vVsR2D3Liri30viF8nFjsC3Q85HiHGOvbqNasBRDZJAFiLEuNgROFXSAR1BHifpDfY6J18D/gcvmvNoKw3Kc0NCJOKVucQj8BRJr+kIwi/QF0LYzvgqp1sSF0+IAUFqkFsEkhxSgzIN6sC8EQfAC2YDT+Oi+PsNNmZolWt4ayzD4OCQoBXCuGyOwImSHsLlswTZN7xFNq/Gr3yGpKMrh+Hmkt4tyUmyeUf9VthA34EgFH+5JMawLusRwMmMvYwWxEmyeS8R8IEFjy2Zz+3BxO5j/muzFk1+jc9ae1VdFzhJ1vcHsYHBaXsw9kXJb5jYYZ/lshiBK0q6uFFw6HzeeuRQcdkZgf1DLODt3yzLDvVOSUzwXHZEgL2iDzcOCtEu/7LxNuRQn1XIF85XvIwgN5N0nCSiJrpsQ4CIfZZcjjXh+KeSWGBw2YYAb9WFgUtW5Re8ejCVwN5n6vL+YPc0FhzY98JRjtQTU5djJD1tGQibJOC0ZqBqvQPYQCXqy7+13pA5/RkuYmI0VWEz8HckkeV5qWxCEApPeRNxy+RgpE/RVIdaZwRLg7U/EJsShOfjtmGP5DdG+rAsataXJd2m4VWrdV3FahYZnLAKnor8saTDN21sH4J0dbIrOxWSPEfSUZuC2eh1mBcxQpiCLFypSjHEmq+D5bAjRo7oN8PbY5m331iaz4SdtwimRmMWvDh7e2PGvEE6EPllffaIEe39a9MwFmQDe1XD+q9T/bPhx27ddTt9byEIlX1xxGYps5mzegPbWAHml59pTOc+6kbbzVkJMtah1icl3alPD4zgWmzLSMg6NjHtYVkJgm3Pl8aGaFgCfMUI27WqSa+TdOgI2xz99gALK0Gog/yEGHmNSSA+S7xTkgdK4td2bEJQEkIrRUkKgrCuzI7kWIQ34thXdJb11c/G0omhHbhCmyyXUxDkniG+71iw3YpmMZbG9GwH5heX7Vmm5sv/RhJvxmhJQRCMGse0VzBlglwiaZfop6m+gi+zxllIQRBgOW9EEf6mTJCfSrp8fc95tEaE1T0+unSiSTr3H1MatykT5CeSdrU8UJWVZS5pWmVN9QZhSRS7pTHIlAnyY0m7jaETJV2aYriYiiCPlPT2kQA7ZYL8SBI+92OQz6UIw5qKIPtJ+vwYUJVUkiC7B0/Fu0jaRxKuzix6sKvN0IAd/fcVDC7+A0kYL45BCDxCfCuTpCIISoxlDb0EQcjzQewl3JkhyTphA++9ISj2umst3//3iJL2JAnql5IgY0kGmpMg1w9ztadGPsUnSTpS0scjy68rRjyoq667qJHvsSv7ilXXlAR5nqSXWBWqoHwugpDohtU+hqNWeWymt8n3JO1hVa6C8l9LlS8lJUHuEcbvFeBjUiEHQZj48mt2A5NmOxbGF+eVCeujqv+SRAar1gXDyyemaERKgrA8CMCtr4LkIEiu+dlhiR2dLpR0jRQP1sB14BJO2juzpCQIyhCAixA5LUtqguS0dmbfgvA9n0gE+AWSrpmorqGqYSXuOpJYcDBLaoL8QUgkY1ZswApSEuRPJD0rc1sIhZoqfR5m4a1HOGEh40GpME9NkPtKOiWVcgPVk4ogJd1YnyCJAH9WIb8iaadbFlYIj03VgNQEQS/SJ7Dx1aqkIkhJDz0Cod0uAeCE/yf1WKvCKhzObsmyNucgCJEIiXfaqqQgSMm3R4dzirfI+WH83mrfvVESCWmTSQ6CYCpBPFsmSi1KCoIQBX5lzNcMwETFfZrTg/jD18ugW6kqWSBirymZ5CAIyrXshpuCIEPlV2GfxRJkm2B57Pa3KNGxr1Y1NhdBhhhipOrUFAQZasONMP6W4S0+3HulArJwPc/PEUI1F0HAho2arVS6jYmVIJiU4GE5hLCsbAmg8Q1JNxxC8QT3zBKJJidBsFTFVLs1sRJkyCAW5Gx/jAHwcyTdyFB+qKJ/LunJOW6ekyDo+8GYgME5GtqjTitBWEV5Q4/7pbzUFEVQEkZ+N0mpUIG6SKh6h7AwlPx2uQnyMEnvSq513gqtBMH1eKiojCSEwdckVs6WdNPYwgOVI+g2NmlZJDdBUPofJd09i/Z5KrUS5MGSTsij2tpa+TF6+Nqrll+AxTGeja0IG4MEGf96LoVLEORRkhgbtyJWggzpfmwdixNuFbffVsQc92pdQ0sQBB0+1VBKaStBMPcn+MEQQqYoljtjBT94VoNaEOzGeHtkXTEsRZBHh5TSLQBvJQhtZNPqVgM09lclnWy4b0v5XnI4jO0EXSmCcOM3S4IotUsKggyRPZbNSauz05mSfrn2Dgo53u9dQs+SBGED6iMNbESlIMgQ8653SDrE+NAQuimFz7xRjbXFIQdBQrJLSYLQmBaGWikIgsk4Kc1KGmyaEsWEJ22ooWGfBx0//GK5MUsTpIWhVgqC0M6S6emsG4TdA/rPKaIR9nnae17LIgJbBgwni8gQBKl9qJWKICXfIineHjxwvPUwNK1VGEIylCwmQxCExtFQQkPWKKkIQtuwrj06cyNfLQn/kxRS83J8slA+fYAaiiDo+FJJv9dH2ULXpiQIKvOLR56KHMJOcso4VsQCxq6pNkGvAyVdVFqxIQlCW4k3mywCRSLwUhMEtdibuF8i/WarubUkopinEsIH1Zb+mqQ+kAOTpeIyNEFIsEgUlL2Lt3z5DXMQhLulnLRjVMgPizn27BwMOWN4xXbxMwdwX96u69AEQRH8iAk4V4vkIkgqkhwnidA2SQKjzYFeW0Satw69uVwDQeijw0PU8hpIkpMgtI/YYQT57humh0Sp2Fm9NiNIH5V014z196maTUuGVt/pUyj1tbUQhHaxGhObFiAlLrkJgq6kGCBCO16XeCCuEpZemavxls2dpKgW1wQCT7B0nbu9a5+bmgiCsjX4sWOwx7CPCB8lhP0SJtvYUREXF2tgYuRyfFUSJuilBFOgdYQtocv+kk4vcaN196iNIOhbw0TxNEmkc5iS4NOdLGSnAbgDakqjUSNBwLaG6BpW5yPDM1K86I1zeuX1aM39a4vtXCtBwLSGnN1ER2SZccyCB2HJYdwyLK0xvbL0Uc0EocE1hMI8PqQwIDXA2ATyE/RgaCni/BTTyNoJQpvIf8G4dEjBkYgcjDXt11jw2EXSCyQdYakkUdniBoh99G6BILSHtX+ilw8tLw8P1iVDK2K4PyYv7KcMnaICO7KHlnJ8isWrFYLQvqNKOsqsAJQVLuYmJ8aCPlA5oraT7SpbDKke7cIxizfHWT3KDHJpSwQBoBcbo3akBJl1eix13y6JX8NahXzhhCPFm/NaFSjJD8vjSzo9WdrcGkFoK0OtIytKeM9CAjvdWOxaIopY+nFRWZZMMWiEGFdIXXlkfbg4MJdrRlokCODeMYT3rG0zjwh/HVEYiv2w8JMAKbqjphi7uMgyvMPQsilplSCAvGt4kzyjUsRx7sG/AgtZgnh/OrGemKjgHovR423C55JBIjZtDpYRkANvxeakZYJ0YBNihyFX7emLibaI/wabcpw5SJpJXm9M1zlz4CB0lXBcOZyx0WJDj4M5BecW8pm/KZCjuCdgKiaOgSBgccuw/Npiwp5UfVlTPczL+NGyZLuqoj1jIUgH5qFhlavVPHtVPBRGJSAF5LDkSjSqkK742AgCMrjxslKCv4VLOQTIssteFefRyBgJ0nXOweFtsu9oeqvOhoxmOLUI3jEThPYSEodVLjamalzhqfOR30wrFhQYTnGcv1mR9q4aO0G6HmFJlA1GJ0qaZxTbOFykqzcVsTZ3KgRxoliflG3lMf3njcHexiRkagSZJwrLwj5HWf2oXxpiBZBGryZTmiIEnSpBZsEl6SZm15CF3XmXbQgQsZFkpATSSB2grhmMnSD/31XYLkEUjpojnOd8uNjt70hxUs4btVK3E2RxT+FURL5xMhm1kHHJ8rx9N3htkrGJIdS5lsrGVtYJsr5HidHUkeVu6y9v4gribeHKDCk4QxKXBQg4Qfo9FqRI5q2Cuyom93v1Kz7Y1ReGQGxnBFIQYtRlAwScIBuAtOISMsLeWRJvGdIG7GOrLllpdrchAab2kILwpaxGufREwAnSE7A1l+PSygSfNHO8XTh3x55pbyUm1ATYmz+IZ8v/XBIg4ARJAOKGVewWyILJC5+XHZeTdPGKA98KCDDGOF0bQlnuMidIOaz9Tg0i4ARpsNNc5XIIOEHKYe13ahABJ0iDneYql0PACVIOa79Tgwg4QRrsNFe5HAJOkHJY+50aRMAJ0mCnucrlEHCClMPa79QgAk6QBjvNVS6HgBOkHNZ+pwYRcII02GmucjkEnCDlsPY7NYiAE6TBTnOVyyHgBCmHtd+pQQScIA12mqtcDgEnSDms/U4NIuAEabDTXOVyCPwfScDST3bgOVoAAAAASUVORK5CYII=;" parent="1" vertex="1">
          <mxGeometry x="220" y="850" width="40" height="40" as="geometry" />
        </mxCell>
        <mxCell id="yaoMZKG-VxOtJUJC3bOf-21" value="" style="shape=image;verticalLabelPosition=bottom;labelBackgroundColor=default;verticalAlign=top;aspect=fixed;imageAspect=0;image=data:image/png,iVBORw0KGgoAAAANSUhEUgAAAMgAAADICAYAAACtWK6eAAAAAXNSR0IArs4c6QAAFnJJREFUeF7tnQnUdVVZx/+KIuJAToUj5gCmhPOAM6moabhSE01WairOE4lWamiaA2QWgjnkhBoOQYoWaKWEmjiQioqKkmSQJpRKDmiErd/77fN1v/vd6exn7332Pud51jrr3Pe9Z+/z7P8+/3v28AyXkYsj4AgsReAyjo0j4AgsR8AJ4k+HI7ACASeIPx6OgBPEnwFHIA4Bf4PE4ealJoKAE2QiHe3NjEPACRKHm5eaCAJOkIl0tDczDgEnSBxuXmoiCDhBJtLR3sw4BJwgcbh5qYkg4ASZSEd7M+MQcILE4ealJoKAE2QiHe3NjEPACRKHm5eaCAJOkIl0tDczDgEnSBxuXmoiCDhB8nf05SVx7BrO3d/L/neppP+ZO3664H/dNZfkb8J07+AE2azvf07SdSVdW9Iekvi7Oy/73H2/2R3ir4Ig31txfH/uu/+U9O+Szpfk5FqDuxNk24PfHdeb+Tz7/yvFP79Vl/yPGbJ0pOnOEIjPF1bdgszKTYUgPy9pn5lj75nPmSFuvvofSfqqpLPDmc/d8YPmWzexN8hNJe23gAxXG3tHDtQ+3jCzhOHzFySdN5A+yW/b8huE+cAdJN0+HHxmPuAyPALMcz4n6fMz5zOHV6u/Bq0Q5CoLyMB8waUdBH62gDSn1q5+zQS5l6R7S7qPpNvWDqTrF4UAy9cflPQhSadJqu4tUxNBbhUIcQ9JHLw1XKaFwLmBLB+XxHHO0M0fkiDXmCPEzYcGw+9fHQKfCkQ5JRCnuIKlCcLE+r6S7hfOPqku3uXN3vCLkj4QDt4uRaQEQfYKZOiIsXuRlvlNxozA6TNkYaUsm+QiCLvQvz7ztrhcthZ4xVNH4B8kvV/SCTn2X1IT5GaSHhOOa02957z9RRFg7+U4SW8N+y9Jbp6KIGzWdcTYLYlmXokjEI9AR5QPx1exraSVIL8SiHGIVREv7whkQIBJPWR5T2zdsQS5i6TDJT0o9sYTLcducufbMevjMf+/7m9gWuQ3MutbMvt5l4niuq7Zn5D0ujD8WnftDt/HEOQpko7pdZdxXMwY9zuSLgjn7vMPJS06sIKd///FmaFgeIthJgdL6LPnRZ+vL4kDkk1B3ijpcX0a2ocgV5d0tKRH9rlBA9deFHZs2bXl+NYcCToi/G8DbYlV8RcCUTrCLDrH1l1bOSyOmRJ8ZhPFNiXIgcFmZpM6a7wGs+yOAP8yR4hJOwT16KybSMKdYNG5RzXVXPpcSUeu02YTgpwk6dfWVVTJ94zdZ02sO5Pr0Tv2DIz/LGn2DcalLRiYYsJy/1XYrSPIOyUdPDD4y27/7TkyQIyzKtV1qmpBkvmjNixeIukFy5RaRZBXSjqsotZ8VtInJX1M0kclfbMi3VyVzRHoCHO3YGlRw4YyIySWhHeSZQR5WpiQb97stFcyL2ASdcYMKb6b9hZeWyUI3C5YdWOrd88BdUIPnrcdZBFBGJP97QCK8nY4OZg1Y+Y85lWjAeBt4pbXkcTm8wHh+MWCWn9ZEk56rGJul3mC8Lr7p7BSUUK3jhRMlvjs4gjMIsDQpzv2LAANRo8HrSLIkyUdm1kRiAAheFs4KTKDPZLqrzpDFAiT02Xi0bM77vNvkI9kGgeyD8GK2LudFCN5ZIdrBsE6urfKyiXaSBXhAMO8LZklCBMkvkwprDhBDA5MNVwcgZQIPFDSoRn26bAxZP9vB4IwtGKIZRWCKh8fSMEwysURyI1AaqKcKOkhswRhcv4lSdY16RcFcmDv4uIIlEYgJVHuzn5bN8RKMTlniW6HJbLS6Pj9HIGAwO9KepkRjS3L344gr5f0eEOFD7M4pRju60UdgWUIMDfBByRWMFu6RUcQHN+3z9x71gi5ntCzjF/uCJRAAFMpTKZi5CfkgOkIQi4IhkgxctcQ3CumrJdxBHIicGfjs7n1BiF3BolUYoWJvftUxKLn5XIjwPYCzn4xchAE2T+Yl8RUQJl1JvOx9Xo5RyAFApbN72fxcBOu500GTZwgBvC8aHYELAQ5hof7hZKOMKjpBDGA50WzI2AhyMk83H+4yqNqA/WdIBuA5JcMhoCFIKfycONy+DyD+k4QA3heNDsCZoKw48jOY6w4QWKR83IlEDAT5BWSnmPQ1AliAM+LZkfATJCjJD3boKYTxACeF82OgJkg1uglTpDlfXzZEFuX+LqrDvKndN9TGy4DfQ5i/rosRsBMkFdJeqYB3TEThLZhKdAde2CfE+LeLvo8/12pVBDEAP5+z4MYw90xZoKZCfJnkp4+IYIQqJloGTeYefCvOUcECMH/OKYgmApxzJKGz7P/Iw7ZN0J0+pYwMRPk1ZKeamhxjW8Q/JYhAceNZj7zN9+5xCNwXiAKZCHOMefu4LvaxEyQ10h6kqFVjJ+HimHFA3/rcJBnneDK/G8q4fwN3ZalKLGRIcvXQljYLk4yfw8lZoK81ujPQQiWHxdo/X6SIAGE6M6M+V3qR4BcKV0g8dkzPhe5xUwQqzchiVqYIKYU8lOQxYrjToEUnj0pJcJ11PWVEAbqtGBRzt+pxUyQv5D0WINWJF8hyYxFeCtAhjuGg6GSy/QQIH4aZCFl2qfDcYkRBjNBMHXH5D1W+LXvOzlj4vwASXgjQoq9Ym/u5UaNAM5OpweivDcyvbOZIG+R9CgDzDcOqxnrqrhuIAXE4PAh0zrE/Pt5BAiqDlH+uocXq5kgbws522K745ckLRs7so/QEYJzzpiqsfp7ufYQYH8GkkCWdZkIzAR5h6TfNGB0S0lnzpVnDsHu/CNCplVD9V7UEViJAEvJEOXNkv51wZVmghAm9OGGTrj9TMbQKwVikNLqCoY6vagj0BcBEixBEja+z50pbCbIuyQR+C1WWH0ipwibjS8NdkqxdXk5R8CKAJvWEOWPAlHMBHmPpIcatGIFDGJc21CHF3UEciDAAtQNDSk9tlxuT5D04BzaeZ2OQOMIbBGECQ75EFwcAUdgRwS2CEKiEDL2uDgCjsACgpAfmj0KF0fAEVhAEDZacuR6c7AdgdYR2BpikXGWJO4ujoAjsOAN8iFJ93FkHAFHYCcEtt4gluQ5jqkjMGYEtghi2WkcMzjeNkfgFAhiteZ1GB2BsSJwLAR5vqQXj7WFjbQL+yG8MjmIcYWXJseVG9F/rGoeBkEwdcfk3aUMArgG/J0k9p8gBOnv8JxbJBCkIwv59lhMObCMmn4XLExSpGBzJFcjwNvhr0hKH4hxthGwq4WMxPeSdJAkPDVd8iCwLwTZU9K38tQ/6VovCmbX+PzPO5SlAoYErFhT/7akvVNV6vVsR2D3Liri30viF8nFjsC3Q85HiHGOvbqNasBRDZJAFiLEuNgROFXSAR1BHifpDfY6J18D/gcvmvNoKw3Kc0NCJOKVucQj8BRJr+kIwi/QF0LYzvgqp1sSF0+IAUFqkFsEkhxSgzIN6sC8EQfAC2YDT+Oi+PsNNmZolWt4ayzD4OCQoBXCuGyOwImSHsLlswTZN7xFNq/Gr3yGpKMrh+Hmkt4tyUmyeUf9VthA34EgFH+5JMawLusRwMmMvYwWxEmyeS8R8IEFjy2Zz+3BxO5j/muzFk1+jc9ae1VdFzhJ1vcHsYHBaXsw9kXJb5jYYZ/lshiBK0q6uFFw6HzeeuRQcdkZgf1DLODt3yzLDvVOSUzwXHZEgL2iDzcOCtEu/7LxNuRQn1XIF85XvIwgN5N0nCSiJrpsQ4CIfZZcjjXh+KeSWGBw2YYAb9WFgUtW5Re8ejCVwN5n6vL+YPc0FhzY98JRjtQTU5djJD1tGQibJOC0ZqBqvQPYQCXqy7+13pA5/RkuYmI0VWEz8HckkeV5qWxCEApPeRNxy+RgpE/RVIdaZwRLg7U/EJsShOfjtmGP5DdG+rAsataXJd2m4VWrdV3FahYZnLAKnor8saTDN21sH4J0dbIrOxWSPEfSUZuC2eh1mBcxQpiCLFypSjHEmq+D5bAjRo7oN8PbY5m331iaz4SdtwimRmMWvDh7e2PGvEE6EPllffaIEe39a9MwFmQDe1XD+q9T/bPhx27ddTt9byEIlX1xxGYps5mzegPbWAHml59pTOc+6kbbzVkJMtah1icl3alPD4zgWmzLSMg6NjHtYVkJgm3Pl8aGaFgCfMUI27WqSa+TdOgI2xz99gALK0Gog/yEGHmNSSA+S7xTkgdK4td2bEJQEkIrRUkKgrCuzI7kWIQ34thXdJb11c/G0omhHbhCmyyXUxDkniG+71iw3YpmMZbG9GwH5heX7Vmm5sv/RhJvxmhJQRCMGse0VzBlglwiaZfop6m+gi+zxllIQRBgOW9EEf6mTJCfSrp8fc95tEaE1T0+unSiSTr3H1MatykT5CeSdrU8UJWVZS5pWmVN9QZhSRS7pTHIlAnyY0m7jaETJV2aYriYiiCPlPT2kQA7ZYL8SBI+92OQz6UIw5qKIPtJ+vwYUJVUkiC7B0/Fu0jaRxKuzix6sKvN0IAd/fcVDC7+A0kYL45BCDxCfCuTpCIISoxlDb0EQcjzQewl3JkhyTphA++9ISj2umst3//3iJL2JAnql5IgY0kGmpMg1w9ztadGPsUnSTpS0scjy68rRjyoq667qJHvsSv7ilXXlAR5nqSXWBWqoHwugpDohtU+hqNWeWymt8n3JO1hVa6C8l9LlS8lJUHuEcbvFeBjUiEHQZj48mt2A5NmOxbGF+eVCeujqv+SRAar1gXDyyemaERKgrA8CMCtr4LkIEiu+dlhiR2dLpR0jRQP1sB14BJO2juzpCQIyhCAixA5LUtqguS0dmbfgvA9n0gE+AWSrpmorqGqYSXuOpJYcDBLaoL8QUgkY1ZswApSEuRPJD0rc1sIhZoqfR5m4a1HOGEh40GpME9NkPtKOiWVcgPVk4ogJd1YnyCJAH9WIb8iaadbFlYIj03VgNQEQS/SJ7Dx1aqkIkhJDz0Cod0uAeCE/yf1WKvCKhzObsmyNucgCJEIiXfaqqQgSMm3R4dzirfI+WH83mrfvVESCWmTSQ6CYCpBPFsmSi1KCoIQBX5lzNcMwETFfZrTg/jD18ugW6kqWSBirymZ5CAIyrXshpuCIEPlV2GfxRJkm2B57Pa3KNGxr1Y1NhdBhhhipOrUFAQZasONMP6W4S0+3HulArJwPc/PEUI1F0HAho2arVS6jYmVIJiU4GE5hLCsbAmg8Q1JNxxC8QT3zBKJJidBsFTFVLs1sRJkyCAW5Gx/jAHwcyTdyFB+qKJ/LunJOW6ekyDo+8GYgME5GtqjTitBWEV5Q4/7pbzUFEVQEkZ+N0mpUIG6SKh6h7AwlPx2uQnyMEnvSq513gqtBMH1eKiojCSEwdckVs6WdNPYwgOVI+g2NmlZJDdBUPofJd09i/Z5KrUS5MGSTsij2tpa+TF6+Nqrll+AxTGeja0IG4MEGf96LoVLEORRkhgbtyJWggzpfmwdixNuFbffVsQc92pdQ0sQBB0+1VBKaStBMPcn+MEQQqYoljtjBT94VoNaEOzGeHtkXTEsRZBHh5TSLQBvJQhtZNPqVgM09lclnWy4b0v5XnI4jO0EXSmCcOM3S4IotUsKggyRPZbNSauz05mSfrn2Dgo53u9dQs+SBGED6iMNbESlIMgQ8653SDrE+NAQuimFz7xRjbXFIQdBQrJLSYLQmBaGWikIgsk4Kc1KGmyaEsWEJ22ooWGfBx0//GK5MUsTpIWhVgqC0M6S6emsG4TdA/rPKaIR9nnae17LIgJbBgwni8gQBKl9qJWKICXfIineHjxwvPUwNK1VGEIylCwmQxCExtFQQkPWKKkIQtuwrj06cyNfLQn/kxRS83J8slA+fYAaiiDo+FJJv9dH2ULXpiQIKvOLR56KHMJOcso4VsQCxq6pNkGvAyVdVFqxIQlCW4k3mywCRSLwUhMEtdibuF8i/WarubUkopinEsIH1Zb+mqQ+kAOTpeIyNEFIsEgUlL2Lt3z5DXMQhLulnLRjVMgPizn27BwMOWN4xXbxMwdwX96u69AEQRH8iAk4V4vkIkgqkhwnidA2SQKjzYFeW0Satw69uVwDQeijw0PU8hpIkpMgtI/YYQT57humh0Sp2Fm9NiNIH5V014z196maTUuGVt/pUyj1tbUQhHaxGhObFiAlLrkJgq6kGCBCO16XeCCuEpZemavxls2dpKgW1wQCT7B0nbu9a5+bmgiCsjX4sWOwx7CPCB8lhP0SJtvYUREXF2tgYuRyfFUSJuilBFOgdYQtocv+kk4vcaN196iNIOhbw0TxNEmkc5iS4NOdLGSnAbgDakqjUSNBwLaG6BpW5yPDM1K86I1zeuX1aM39a4vtXCtBwLSGnN1ER2SZccyCB2HJYdwyLK0xvbL0Uc0EocE1hMI8PqQwIDXA2ATyE/RgaCni/BTTyNoJQpvIf8G4dEjBkYgcjDXt11jw2EXSCyQdYakkUdniBoh99G6BILSHtX+ilw8tLw8P1iVDK2K4PyYv7KcMnaICO7KHlnJ8isWrFYLQvqNKOsqsAJQVLuYmJ8aCPlA5oraT7SpbDKke7cIxizfHWT3KDHJpSwQBoBcbo3akBJl1eix13y6JX8NahXzhhCPFm/NaFSjJD8vjSzo9WdrcGkFoK0OtIytKeM9CAjvdWOxaIopY+nFRWZZMMWiEGFdIXXlkfbg4MJdrRlokCODeMYT3rG0zjwh/HVEYiv2w8JMAKbqjphi7uMgyvMPQsilplSCAvGt4kzyjUsRx7sG/AgtZgnh/OrGemKjgHovR423C55JBIjZtDpYRkANvxeakZYJ0YBNihyFX7emLibaI/wabcpw5SJpJXm9M1zlz4CB0lXBcOZyx0WJDj4M5BecW8pm/KZCjuCdgKiaOgSBgccuw/Npiwp5UfVlTPczL+NGyZLuqoj1jIUgH5qFhlavVPHtVPBRGJSAF5LDkSjSqkK742AgCMrjxslKCv4VLOQTIssteFefRyBgJ0nXOweFtsu9oeqvOhoxmOLUI3jEThPYSEodVLjamalzhqfOR30wrFhQYTnGcv1mR9q4aO0G6HmFJlA1GJ0qaZxTbOFykqzcVsTZ3KgRxoliflG3lMf3njcHexiRkagSZJwrLwj5HWf2oXxpiBZBGryZTmiIEnSpBZsEl6SZm15CF3XmXbQgQsZFkpATSSB2grhmMnSD/31XYLkEUjpojnOd8uNjt70hxUs4btVK3E2RxT+FURL5xMhm1kHHJ8rx9N3htkrGJIdS5lsrGVtYJsr5HidHUkeVu6y9v4gribeHKDCk4QxKXBQg4Qfo9FqRI5q2Cuyom93v1Kz7Y1ReGQGxnBFIQYtRlAwScIBuAtOISMsLeWRJvGdIG7GOrLllpdrchAab2kILwpaxGufREwAnSE7A1l+PSygSfNHO8XTh3x55pbyUm1ATYmz+IZ8v/XBIg4ARJAOKGVewWyILJC5+XHZeTdPGKA98KCDDGOF0bQlnuMidIOaz9Tg0i4ARpsNNc5XIIOEHKYe13ahABJ0iDneYql0PACVIOa79Tgwg4QRrsNFe5HAJOkHJY+50aRMAJ0mCnucrlEHCClMPa79QgAk6QBjvNVS6HgBOkHNZ+pwYRcII02GmucjkEnCDlsPY7NYiAE6TBTnOVyyHgBCmHtd+pQQScIA12mqtcDgEnSDms/U4NIuAEabDTXOVyCPwfScDST3bgOVoAAAAASUVORK5CYII=;" parent="1" vertex="1">
          <mxGeometry x="480" y="860" width="40" height="40" as="geometry" />
        </mxCell>
        <mxCell id="yaoMZKG-VxOtJUJC3bOf-22" value="" style="shape=image;verticalLabelPosition=bottom;labelBackgroundColor=default;verticalAlign=top;aspect=fixed;imageAspect=0;image=data:image/png,iVBORw0KGgoAAAANSUhEUgAAAMgAAADICAYAAACtWK6eAAAAAXNSR0IArs4c6QAAFnJJREFUeF7tnQnUdVVZx/+KIuJAToUj5gCmhPOAM6moabhSE01WairOE4lWamiaA2QWgjnkhBoOQYoWaKWEmjiQioqKkmSQJpRKDmiErd/77fN1v/vd6exn7332Pud51jrr3Pe9Z+/z7P8+/3v28AyXkYsj4AgsReAyjo0j4AgsR8AJ4k+HI7ACASeIPx6OgBPEnwFHIA4Bf4PE4ealJoKAE2QiHe3NjEPACRKHm5eaCAJOkIl0tDczDgEnSBxuXmoiCDhBJtLR3sw4BJwgcbh5qYkg4ASZSEd7M+MQcILE4ealJoKAE2QiHe3NjEPACRKHm5eaCAJOkIl0tDczDgEnSBxuXmoiCDhB8nf05SVx7BrO3d/L/neppP+ZO3664H/dNZfkb8J07+AE2azvf07SdSVdW9Iekvi7Oy/73H2/2R3ir4Ig31txfH/uu/+U9O+Szpfk5FqDuxNk24PfHdeb+Tz7/yvFP79Vl/yPGbJ0pOnOEIjPF1bdgszKTYUgPy9pn5lj75nPmSFuvvofSfqqpLPDmc/d8YPmWzexN8hNJe23gAxXG3tHDtQ+3jCzhOHzFySdN5A+yW/b8huE+cAdJN0+HHxmPuAyPALMcz4n6fMz5zOHV6u/Bq0Q5CoLyMB8waUdBH62gDSn1q5+zQS5l6R7S7qPpNvWDqTrF4UAy9cflPQhSadJqu4tUxNBbhUIcQ9JHLw1XKaFwLmBLB+XxHHO0M0fkiDXmCPEzYcGw+9fHQKfCkQ5JRCnuIKlCcLE+r6S7hfOPqku3uXN3vCLkj4QDt4uRaQEQfYKZOiIsXuRlvlNxozA6TNkYaUsm+QiCLvQvz7ztrhcthZ4xVNH4B8kvV/SCTn2X1IT5GaSHhOOa02957z9RRFg7+U4SW8N+y9Jbp6KIGzWdcTYLYlmXokjEI9AR5QPx1exraSVIL8SiHGIVREv7whkQIBJPWR5T2zdsQS5i6TDJT0o9sYTLcducufbMevjMf+/7m9gWuQ3MutbMvt5l4niuq7Zn5D0ujD8WnftDt/HEOQpko7pdZdxXMwY9zuSLgjn7vMPJS06sIKd///FmaFgeIthJgdL6LPnRZ+vL4kDkk1B3ijpcX0a2ocgV5d0tKRH9rlBA9deFHZs2bXl+NYcCToi/G8DbYlV8RcCUTrCLDrH1l1bOSyOmRJ8ZhPFNiXIgcFmZpM6a7wGs+yOAP8yR4hJOwT16KybSMKdYNG5RzXVXPpcSUeu02YTgpwk6dfWVVTJ94zdZ02sO5Pr0Tv2DIz/LGn2DcalLRiYYsJy/1XYrSPIOyUdPDD4y27/7TkyQIyzKtV1qmpBkvmjNixeIukFy5RaRZBXSjqsotZ8VtInJX1M0kclfbMi3VyVzRHoCHO3YGlRw4YyIySWhHeSZQR5WpiQb97stFcyL2ASdcYMKb6b9hZeWyUI3C5YdWOrd88BdUIPnrcdZBFBGJP97QCK8nY4OZg1Y+Y85lWjAeBt4pbXkcTm8wHh+MWCWn9ZEk56rGJul3mC8Lr7p7BSUUK3jhRMlvjs4gjMIsDQpzv2LAANRo8HrSLIkyUdm1kRiAAheFs4KTKDPZLqrzpDFAiT02Xi0bM77vNvkI9kGgeyD8GK2LudFCN5ZIdrBsE6urfKyiXaSBXhAMO8LZklCBMkvkwprDhBDA5MNVwcgZQIPFDSoRn26bAxZP9vB4IwtGKIZRWCKh8fSMEwysURyI1AaqKcKOkhswRhcv4lSdY16RcFcmDv4uIIlEYgJVHuzn5bN8RKMTlniW6HJbLS6Pj9HIGAwO9KepkRjS3L344gr5f0eEOFD7M4pRju60UdgWUIMDfBByRWMFu6RUcQHN+3z9x71gi5ntCzjF/uCJRAAFMpTKZi5CfkgOkIQi4IhkgxctcQ3CumrJdxBHIicGfjs7n1BiF3BolUYoWJvftUxKLn5XIjwPYCzn4xchAE2T+Yl8RUQJl1JvOx9Xo5RyAFApbN72fxcBOu500GTZwgBvC8aHYELAQ5hof7hZKOMKjpBDGA50WzI2AhyMk83H+4yqNqA/WdIBuA5JcMhoCFIKfycONy+DyD+k4QA3heNDsCZoKw48jOY6w4QWKR83IlEDAT5BWSnmPQ1AliAM+LZkfATJCjJD3boKYTxACeF82OgJkg1uglTpDlfXzZEFuX+LqrDvKndN9TGy4DfQ5i/rosRsBMkFdJeqYB3TEThLZhKdAde2CfE+LeLvo8/12pVBDEAP5+z4MYw90xZoKZCfJnkp4+IYIQqJloGTeYefCvOUcECMH/OKYgmApxzJKGz7P/Iw7ZN0J0+pYwMRPk1ZKeamhxjW8Q/JYhAceNZj7zN9+5xCNwXiAKZCHOMefu4LvaxEyQ10h6kqFVjJ+HimHFA3/rcJBnneDK/G8q4fwN3ZalKLGRIcvXQljYLk4yfw8lZoK81ujPQQiWHxdo/X6SIAGE6M6M+V3qR4BcKV0g8dkzPhe5xUwQqzchiVqYIKYU8lOQxYrjToEUnj0pJcJ11PWVEAbqtGBRzt+pxUyQv5D0WINWJF8hyYxFeCtAhjuGg6GSy/QQIH4aZCFl2qfDcYkRBjNBMHXH5D1W+LXvOzlj4vwASXgjQoq9Ym/u5UaNAM5OpweivDcyvbOZIG+R9CgDzDcOqxnrqrhuIAXE4PAh0zrE/Pt5BAiqDlH+uocXq5kgbws522K745ckLRs7so/QEYJzzpiqsfp7ufYQYH8GkkCWdZkIzAR5h6TfNGB0S0lnzpVnDsHu/CNCplVD9V7UEViJAEvJEOXNkv51wZVmghAm9OGGTrj9TMbQKwVikNLqCoY6vagj0BcBEixBEja+z50pbCbIuyQR+C1WWH0ipwibjS8NdkqxdXk5R8CKAJvWEOWPAlHMBHmPpIcatGIFDGJc21CHF3UEciDAAtQNDSk9tlxuT5D04BzaeZ2OQOMIbBGECQ75EFwcAUdgRwS2CEKiEDL2uDgCjsACgpAfmj0KF0fAEVhAEDZacuR6c7AdgdYR2BpikXGWJO4ujoAjsOAN8iFJ93FkHAFHYCcEtt4gluQ5jqkjMGYEtghi2WkcMzjeNkfgFAhiteZ1GB2BsSJwLAR5vqQXj7WFjbQL+yG8MjmIcYWXJseVG9F/rGoeBkEwdcfk3aUMArgG/J0k9p8gBOnv8JxbJBCkIwv59lhMObCMmn4XLExSpGBzJFcjwNvhr0hKH4hxthGwq4WMxPeSdJAkPDVd8iCwLwTZU9K38tQ/6VovCmbX+PzPO5SlAoYErFhT/7akvVNV6vVsR2D3Liri30viF8nFjsC3Q85HiHGOvbqNasBRDZJAFiLEuNgROFXSAR1BHifpDfY6J18D/gcvmvNoKw3Kc0NCJOKVucQj8BRJr+kIwi/QF0LYzvgqp1sSF0+IAUFqkFsEkhxSgzIN6sC8EQfAC2YDT+Oi+PsNNmZolWt4ayzD4OCQoBXCuGyOwImSHsLlswTZN7xFNq/Gr3yGpKMrh+Hmkt4tyUmyeUf9VthA34EgFH+5JMawLusRwMmMvYwWxEmyeS8R8IEFjy2Zz+3BxO5j/muzFk1+jc9ae1VdFzhJ1vcHsYHBaXsw9kXJb5jYYZ/lshiBK0q6uFFw6HzeeuRQcdkZgf1DLODt3yzLDvVOSUzwXHZEgL2iDzcOCtEu/7LxNuRQn1XIF85XvIwgN5N0nCSiJrpsQ4CIfZZcjjXh+KeSWGBw2YYAb9WFgUtW5Re8ejCVwN5n6vL+YPc0FhzY98JRjtQTU5djJD1tGQibJOC0ZqBqvQPYQCXqy7+13pA5/RkuYmI0VWEz8HckkeV5qWxCEApPeRNxy+RgpE/RVIdaZwRLg7U/EJsShOfjtmGP5DdG+rAsataXJd2m4VWrdV3FahYZnLAKnor8saTDN21sH4J0dbIrOxWSPEfSUZuC2eh1mBcxQpiCLFypSjHEmq+D5bAjRo7oN8PbY5m331iaz4SdtwimRmMWvDh7e2PGvEE6EPllffaIEe39a9MwFmQDe1XD+q9T/bPhx27ddTt9byEIlX1xxGYps5mzegPbWAHml59pTOc+6kbbzVkJMtah1icl3alPD4zgWmzLSMg6NjHtYVkJgm3Pl8aGaFgCfMUI27WqSa+TdOgI2xz99gALK0Gog/yEGHmNSSA+S7xTkgdK4td2bEJQEkIrRUkKgrCuzI7kWIQ34thXdJb11c/G0omhHbhCmyyXUxDkniG+71iw3YpmMZbG9GwH5heX7Vmm5sv/RhJvxmhJQRCMGse0VzBlglwiaZfop6m+gi+zxllIQRBgOW9EEf6mTJCfSrp8fc95tEaE1T0+unSiSTr3H1MatykT5CeSdrU8UJWVZS5pWmVN9QZhSRS7pTHIlAnyY0m7jaETJV2aYriYiiCPlPT2kQA7ZYL8SBI+92OQz6UIw5qKIPtJ+vwYUJVUkiC7B0/Fu0jaRxKuzix6sKvN0IAd/fcVDC7+A0kYL45BCDxCfCuTpCIISoxlDb0EQcjzQewl3JkhyTphA++9ISj2umst3//3iJL2JAnql5IgY0kGmpMg1w9ztadGPsUnSTpS0scjy68rRjyoq667qJHvsSv7ilXXlAR5nqSXWBWqoHwugpDohtU+hqNWeWymt8n3JO1hVa6C8l9LlS8lJUHuEcbvFeBjUiEHQZj48mt2A5NmOxbGF+eVCeujqv+SRAar1gXDyyemaERKgrA8CMCtr4LkIEiu+dlhiR2dLpR0jRQP1sB14BJO2juzpCQIyhCAixA5LUtqguS0dmbfgvA9n0gE+AWSrpmorqGqYSXuOpJYcDBLaoL8QUgkY1ZswApSEuRPJD0rc1sIhZoqfR5m4a1HOGEh40GpME9NkPtKOiWVcgPVk4ogJd1YnyCJAH9WIb8iaadbFlYIj03VgNQEQS/SJ7Dx1aqkIkhJDz0Cod0uAeCE/yf1WKvCKhzObsmyNucgCJEIiXfaqqQgSMm3R4dzirfI+WH83mrfvVESCWmTSQ6CYCpBPFsmSi1KCoIQBX5lzNcMwETFfZrTg/jD18ugW6kqWSBirymZ5CAIyrXshpuCIEPlV2GfxRJkm2B57Pa3KNGxr1Y1NhdBhhhipOrUFAQZasONMP6W4S0+3HulArJwPc/PEUI1F0HAho2arVS6jYmVIJiU4GE5hLCsbAmg8Q1JNxxC8QT3zBKJJidBsFTFVLs1sRJkyCAW5Gx/jAHwcyTdyFB+qKJ/LunJOW6ekyDo+8GYgME5GtqjTitBWEV5Q4/7pbzUFEVQEkZ+N0mpUIG6SKh6h7AwlPx2uQnyMEnvSq513gqtBMH1eKiojCSEwdckVs6WdNPYwgOVI+g2NmlZJDdBUPofJd09i/Z5KrUS5MGSTsij2tpa+TF6+Nqrll+AxTGeja0IG4MEGf96LoVLEORRkhgbtyJWggzpfmwdixNuFbffVsQc92pdQ0sQBB0+1VBKaStBMPcn+MEQQqYoljtjBT94VoNaEOzGeHtkXTEsRZBHh5TSLQBvJQhtZNPqVgM09lclnWy4b0v5XnI4jO0EXSmCcOM3S4IotUsKggyRPZbNSauz05mSfrn2Dgo53u9dQs+SBGED6iMNbESlIMgQ8653SDrE+NAQuimFz7xRjbXFIQdBQrJLSYLQmBaGWikIgsk4Kc1KGmyaEsWEJ22ooWGfBx0//GK5MUsTpIWhVgqC0M6S6emsG4TdA/rPKaIR9nnae17LIgJbBgwni8gQBKl9qJWKICXfIineHjxwvPUwNK1VGEIylCwmQxCExtFQQkPWKKkIQtuwrj06cyNfLQn/kxRS83J8slA+fYAaiiDo+FJJv9dH2ULXpiQIKvOLR56KHMJOcso4VsQCxq6pNkGvAyVdVFqxIQlCW4k3mywCRSLwUhMEtdibuF8i/WarubUkopinEsIH1Zb+mqQ+kAOTpeIyNEFIsEgUlL2Lt3z5DXMQhLulnLRjVMgPizn27BwMOWN4xXbxMwdwX96u69AEQRH8iAk4V4vkIkgqkhwnidA2SQKjzYFeW0Satw69uVwDQeijw0PU8hpIkpMgtI/YYQT57humh0Sp2Fm9NiNIH5V014z196maTUuGVt/pUyj1tbUQhHaxGhObFiAlLrkJgq6kGCBCO16XeCCuEpZemavxls2dpKgW1wQCT7B0nbu9a5+bmgiCsjX4sWOwx7CPCB8lhP0SJtvYUREXF2tgYuRyfFUSJuilBFOgdYQtocv+kk4vcaN196iNIOhbw0TxNEmkc5iS4NOdLGSnAbgDakqjUSNBwLaG6BpW5yPDM1K86I1zeuX1aM39a4vtXCtBwLSGnN1ER2SZccyCB2HJYdwyLK0xvbL0Uc0EocE1hMI8PqQwIDXA2ATyE/RgaCni/BTTyNoJQpvIf8G4dEjBkYgcjDXt11jw2EXSCyQdYakkUdniBoh99G6BILSHtX+ilw8tLw8P1iVDK2K4PyYv7KcMnaICO7KHlnJ8isWrFYLQvqNKOsqsAJQVLuYmJ8aCPlA5oraT7SpbDKke7cIxizfHWT3KDHJpSwQBoBcbo3akBJl1eix13y6JX8NahXzhhCPFm/NaFSjJD8vjSzo9WdrcGkFoK0OtIytKeM9CAjvdWOxaIopY+nFRWZZMMWiEGFdIXXlkfbg4MJdrRlokCODeMYT3rG0zjwh/HVEYiv2w8JMAKbqjphi7uMgyvMPQsilplSCAvGt4kzyjUsRx7sG/AgtZgnh/OrGemKjgHovR423C55JBIjZtDpYRkANvxeakZYJ0YBNihyFX7emLibaI/wabcpw5SJpJXm9M1zlz4CB0lXBcOZyx0WJDj4M5BecW8pm/KZCjuCdgKiaOgSBgccuw/Npiwp5UfVlTPczL+NGyZLuqoj1jIUgH5qFhlavVPHtVPBRGJSAF5LDkSjSqkK742AgCMrjxslKCv4VLOQTIssteFefRyBgJ0nXOweFtsu9oeqvOhoxmOLUI3jEThPYSEodVLjamalzhqfOR30wrFhQYTnGcv1mR9q4aO0G6HmFJlA1GJ0qaZxTbOFykqzcVsTZ3KgRxoliflG3lMf3njcHexiRkagSZJwrLwj5HWf2oXxpiBZBGryZTmiIEnSpBZsEl6SZm15CF3XmXbQgQsZFkpATSSB2grhmMnSD/31XYLkEUjpojnOd8uNjt70hxUs4btVK3E2RxT+FURL5xMhm1kHHJ8rx9N3htkrGJIdS5lsrGVtYJsr5HidHUkeVu6y9v4gribeHKDCk4QxKXBQg4Qfo9FqRI5q2Cuyom93v1Kz7Y1ReGQGxnBFIQYtRlAwScIBuAtOISMsLeWRJvGdIG7GOrLllpdrchAab2kILwpaxGufREwAnSE7A1l+PSygSfNHO8XTh3x55pbyUm1ATYmz+IZ8v/XBIg4ARJAOKGVewWyILJC5+XHZeTdPGKA98KCDDGOF0bQlnuMidIOaz9Tg0i4ARpsNNc5XIIOEHKYe13ahABJ0iDneYql0PACVIOa79Tgwg4QRrsNFe5HAJOkHJY+50aRMAJ0mCnucrlEHCClMPa79QgAk6QBjvNVS6HgBOkHNZ+pwYRcII02GmucjkEnCDlsPY7NYiAE6TBTnOVyyHgBCmHtd+pQQScIA12mqtcDgEnSDms/U4NIuAEabDTXOVyCPwfScDST3bgOVoAAAAASUVORK5CYII=;" parent="1" vertex="1">
          <mxGeometry x="345" y="850" width="40" height="40" as="geometry" />
        </mxCell>
        <mxCell id="yaoMZKG-VxOtJUJC3bOf-23" value="为了增加3个点位&#xa;被取掉的节点摄像头" style="shape=image;verticalLabelPosition=bottom;labelBackgroundColor=default;verticalAlign=top;aspect=fixed;imageAspect=0;image=data:image/png,iVBORw0KGgoAAAANSUhEUgAAAMgAAADICAYAAACtWK6eAAAAAXNSR0IArs4c6QAAFnJJREFUeF7tnQnUdVVZx/+KIuJAToUj5gCmhPOAM6moabhSE01WairOE4lWamiaA2QWgjnkhBoOQYoWaKWEmjiQioqKkmSQJpRKDmiErd/77fN1v/vd6exn7332Pud51jrr3Pe9Z+/z7P8+/3v28AyXkYsj4AgsReAyjo0j4AgsR8AJ4k+HI7ACASeIPx6OgBPEnwFHIA4Bf4PE4ealJoKAE2QiHe3NjEPACRKHm5eaCAJOkIl0tDczDgEnSBxuXmoiCDhBJtLR3sw4BJwgcbh5qYkg4ASZSEd7M+MQcILE4ealJoKAE2QiHe3NjEPACRKHm5eaCAJOkIl0tDczDgEnSBxuXmoiCDhB8nf05SVx7BrO3d/L/neppP+ZO3664H/dNZfkb8J07+AE2azvf07SdSVdW9Iekvi7Oy/73H2/2R3ir4Ig31txfH/uu/+U9O+Szpfk5FqDuxNk24PfHdeb+Tz7/yvFP79Vl/yPGbJ0pOnOEIjPF1bdgszKTYUgPy9pn5lj75nPmSFuvvofSfqqpLPDmc/d8YPmWzexN8hNJe23gAxXG3tHDtQ+3jCzhOHzFySdN5A+yW/b8huE+cAdJN0+HHxmPuAyPALMcz4n6fMz5zOHV6u/Bq0Q5CoLyMB8waUdBH62gDSn1q5+zQS5l6R7S7qPpNvWDqTrF4UAy9cflPQhSadJqu4tUxNBbhUIcQ9JHLw1XKaFwLmBLB+XxHHO0M0fkiDXmCPEzYcGw+9fHQKfCkQ5JRCnuIKlCcLE+r6S7hfOPqku3uXN3vCLkj4QDt4uRaQEQfYKZOiIsXuRlvlNxozA6TNkYaUsm+QiCLvQvz7ztrhcthZ4xVNH4B8kvV/SCTn2X1IT5GaSHhOOa02957z9RRFg7+U4SW8N+y9Jbp6KIGzWdcTYLYlmXokjEI9AR5QPx1exraSVIL8SiHGIVREv7whkQIBJPWR5T2zdsQS5i6TDJT0o9sYTLcducufbMevjMf+/7m9gWuQ3MutbMvt5l4niuq7Zn5D0ujD8WnftDt/HEOQpko7pdZdxXMwY9zuSLgjn7vMPJS06sIKd///FmaFgeIthJgdL6LPnRZ+vL4kDkk1B3ijpcX0a2ocgV5d0tKRH9rlBA9deFHZs2bXl+NYcCToi/G8DbYlV8RcCUTrCLDrH1l1bOSyOmRJ8ZhPFNiXIgcFmZpM6a7wGs+yOAP8yR4hJOwT16KybSMKdYNG5RzXVXPpcSUeu02YTgpwk6dfWVVTJ94zdZ02sO5Pr0Tv2DIz/LGn2DcalLRiYYsJy/1XYrSPIOyUdPDD4y27/7TkyQIyzKtV1qmpBkvmjNixeIukFy5RaRZBXSjqsotZ8VtInJX1M0kclfbMi3VyVzRHoCHO3YGlRw4YyIySWhHeSZQR5WpiQb97stFcyL2ASdcYMKb6b9hZeWyUI3C5YdWOrd88BdUIPnrcdZBFBGJP97QCK8nY4OZg1Y+Y85lWjAeBt4pbXkcTm8wHh+MWCWn9ZEk56rGJul3mC8Lr7p7BSUUK3jhRMlvjs4gjMIsDQpzv2LAANRo8HrSLIkyUdm1kRiAAheFs4KTKDPZLqrzpDFAiT02Xi0bM77vNvkI9kGgeyD8GK2LudFCN5ZIdrBsE6urfKyiXaSBXhAMO8LZklCBMkvkwprDhBDA5MNVwcgZQIPFDSoRn26bAxZP9vB4IwtGKIZRWCKh8fSMEwysURyI1AaqKcKOkhswRhcv4lSdY16RcFcmDv4uIIlEYgJVHuzn5bN8RKMTlniW6HJbLS6Pj9HIGAwO9KepkRjS3L344gr5f0eEOFD7M4pRju60UdgWUIMDfBByRWMFu6RUcQHN+3z9x71gi5ntCzjF/uCJRAAFMpTKZi5CfkgOkIQi4IhkgxctcQ3CumrJdxBHIicGfjs7n1BiF3BolUYoWJvftUxKLn5XIjwPYCzn4xchAE2T+Yl8RUQJl1JvOx9Xo5RyAFApbN72fxcBOu500GTZwgBvC8aHYELAQ5hof7hZKOMKjpBDGA50WzI2AhyMk83H+4yqNqA/WdIBuA5JcMhoCFIKfycONy+DyD+k4QA3heNDsCZoKw48jOY6w4QWKR83IlEDAT5BWSnmPQ1AliAM+LZkfATJCjJD3boKYTxACeF82OgJkg1uglTpDlfXzZEFuX+LqrDvKndN9TGy4DfQ5i/rosRsBMkFdJeqYB3TEThLZhKdAde2CfE+LeLvo8/12pVBDEAP5+z4MYw90xZoKZCfJnkp4+IYIQqJloGTeYefCvOUcECMH/OKYgmApxzJKGz7P/Iw7ZN0J0+pYwMRPk1ZKeamhxjW8Q/JYhAceNZj7zN9+5xCNwXiAKZCHOMefu4LvaxEyQ10h6kqFVjJ+HimHFA3/rcJBnneDK/G8q4fwN3ZalKLGRIcvXQljYLk4yfw8lZoK81ujPQQiWHxdo/X6SIAGE6M6M+V3qR4BcKV0g8dkzPhe5xUwQqzchiVqYIKYU8lOQxYrjToEUnj0pJcJ11PWVEAbqtGBRzt+pxUyQv5D0WINWJF8hyYxFeCtAhjuGg6GSy/QQIH4aZCFl2qfDcYkRBjNBMHXH5D1W+LXvOzlj4vwASXgjQoq9Ym/u5UaNAM5OpweivDcyvbOZIG+R9CgDzDcOqxnrqrhuIAXE4PAh0zrE/Pt5BAiqDlH+uocXq5kgbws522K745ckLRs7so/QEYJzzpiqsfp7ufYQYH8GkkCWdZkIzAR5h6TfNGB0S0lnzpVnDsHu/CNCplVD9V7UEViJAEvJEOXNkv51wZVmghAm9OGGTrj9TMbQKwVikNLqCoY6vagj0BcBEixBEja+z50pbCbIuyQR+C1WWH0ipwibjS8NdkqxdXk5R8CKAJvWEOWPAlHMBHmPpIcatGIFDGJc21CHF3UEciDAAtQNDSk9tlxuT5D04BzaeZ2OQOMIbBGECQ75EFwcAUdgRwS2CEKiEDL2uDgCjsACgpAfmj0KF0fAEVhAEDZacuR6c7AdgdYR2BpikXGWJO4ujoAjsOAN8iFJ93FkHAFHYCcEtt4gluQ5jqkjMGYEtghi2WkcMzjeNkfgFAhiteZ1GB2BsSJwLAR5vqQXj7WFjbQL+yG8MjmIcYWXJseVG9F/rGoeBkEwdcfk3aUMArgG/J0k9p8gBOnv8JxbJBCkIwv59lhMObCMmn4XLExSpGBzJFcjwNvhr0hKH4hxthGwq4WMxPeSdJAkPDVd8iCwLwTZU9K38tQ/6VovCmbX+PzPO5SlAoYErFhT/7akvVNV6vVsR2D3Liri30viF8nFjsC3Q85HiHGOvbqNasBRDZJAFiLEuNgROFXSAR1BHifpDfY6J18D/gcvmvNoKw3Kc0NCJOKVucQj8BRJr+kIwi/QF0LYzvgqp1sSF0+IAUFqkFsEkhxSgzIN6sC8EQfAC2YDT+Oi+PsNNmZolWt4ayzD4OCQoBXCuGyOwImSHsLlswTZN7xFNq/Gr3yGpKMrh+Hmkt4tyUmyeUf9VthA34EgFH+5JMawLusRwMmMvYwWxEmyeS8R8IEFjy2Zz+3BxO5j/muzFk1+jc9ae1VdFzhJ1vcHsYHBaXsw9kXJb5jYYZ/lshiBK0q6uFFw6HzeeuRQcdkZgf1DLODt3yzLDvVOSUzwXHZEgL2iDzcOCtEu/7LxNuRQn1XIF85XvIwgN5N0nCSiJrpsQ4CIfZZcjjXh+KeSWGBw2YYAb9WFgUtW5Re8ejCVwN5n6vL+YPc0FhzY98JRjtQTU5djJD1tGQibJOC0ZqBqvQPYQCXqy7+13pA5/RkuYmI0VWEz8HckkeV5qWxCEApPeRNxy+RgpE/RVIdaZwRLg7U/EJsShOfjtmGP5DdG+rAsataXJd2m4VWrdV3FahYZnLAKnor8saTDN21sH4J0dbIrOxWSPEfSUZuC2eh1mBcxQpiCLFypSjHEmq+D5bAjRo7oN8PbY5m331iaz4SdtwimRmMWvDh7e2PGvEE6EPllffaIEe39a9MwFmQDe1XD+q9T/bPhx27ddTt9byEIlX1xxGYps5mzegPbWAHml59pTOc+6kbbzVkJMtah1icl3alPD4zgWmzLSMg6NjHtYVkJgm3Pl8aGaFgCfMUI27WqSa+TdOgI2xz99gALK0Gog/yEGHmNSSA+S7xTkgdK4td2bEJQEkIrRUkKgrCuzI7kWIQ34thXdJb11c/G0omhHbhCmyyXUxDkniG+71iw3YpmMZbG9GwH5heX7Vmm5sv/RhJvxmhJQRCMGse0VzBlglwiaZfop6m+gi+zxllIQRBgOW9EEf6mTJCfSrp8fc95tEaE1T0+unSiSTr3H1MatykT5CeSdrU8UJWVZS5pWmVN9QZhSRS7pTHIlAnyY0m7jaETJV2aYriYiiCPlPT2kQA7ZYL8SBI+92OQz6UIw5qKIPtJ+vwYUJVUkiC7B0/Fu0jaRxKuzix6sKvN0IAd/fcVDC7+A0kYL45BCDxCfCuTpCIISoxlDb0EQcjzQewl3JkhyTphA++9ISj2umst3//3iJL2JAnql5IgY0kGmpMg1w9ztadGPsUnSTpS0scjy68rRjyoq667qJHvsSv7ilXXlAR5nqSXWBWqoHwugpDohtU+hqNWeWymt8n3JO1hVa6C8l9LlS8lJUHuEcbvFeBjUiEHQZj48mt2A5NmOxbGF+eVCeujqv+SRAar1gXDyyemaERKgrA8CMCtr4LkIEiu+dlhiR2dLpR0jRQP1sB14BJO2juzpCQIyhCAixA5LUtqguS0dmbfgvA9n0gE+AWSrpmorqGqYSXuOpJYcDBLaoL8QUgkY1ZswApSEuRPJD0rc1sIhZoqfR5m4a1HOGEh40GpME9NkPtKOiWVcgPVk4ogJd1YnyCJAH9WIb8iaadbFlYIj03VgNQEQS/SJ7Dx1aqkIkhJDz0Cod0uAeCE/yf1WKvCKhzObsmyNucgCJEIiXfaqqQgSMm3R4dzirfI+WH83mrfvVESCWmTSQ6CYCpBPFsmSi1KCoIQBX5lzNcMwETFfZrTg/jD18ugW6kqWSBirymZ5CAIyrXshpuCIEPlV2GfxRJkm2B57Pa3KNGxr1Y1NhdBhhhipOrUFAQZasONMP6W4S0+3HulArJwPc/PEUI1F0HAho2arVS6jYmVIJiU4GE5hLCsbAmg8Q1JNxxC8QT3zBKJJidBsFTFVLs1sRJkyCAW5Gx/jAHwcyTdyFB+qKJ/LunJOW6ekyDo+8GYgME5GtqjTitBWEV5Q4/7pbzUFEVQEkZ+N0mpUIG6SKh6h7AwlPx2uQnyMEnvSq513gqtBMH1eKiojCSEwdckVs6WdNPYwgOVI+g2NmlZJDdBUPofJd09i/Z5KrUS5MGSTsij2tpa+TF6+Nqrll+AxTGeja0IG4MEGf96LoVLEORRkhgbtyJWggzpfmwdixNuFbffVsQc92pdQ0sQBB0+1VBKaStBMPcn+MEQQqYoljtjBT94VoNaEOzGeHtkXTEsRZBHh5TSLQBvJQhtZNPqVgM09lclnWy4b0v5XnI4jO0EXSmCcOM3S4IotUsKggyRPZbNSauz05mSfrn2Dgo53u9dQs+SBGED6iMNbESlIMgQ8653SDrE+NAQuimFz7xRjbXFIQdBQrJLSYLQmBaGWikIgsk4Kc1KGmyaEsWEJ22ooWGfBx0//GK5MUsTpIWhVgqC0M6S6emsG4TdA/rPKaIR9nnae17LIgJbBgwni8gQBKl9qJWKICXfIineHjxwvPUwNK1VGEIylCwmQxCExtFQQkPWKKkIQtuwrj06cyNfLQn/kxRS83J8slA+fYAaiiDo+FJJv9dH2ULXpiQIKvOLR56KHMJOcso4VsQCxq6pNkGvAyVdVFqxIQlCW4k3mywCRSLwUhMEtdibuF8i/WarubUkopinEsIH1Zb+mqQ+kAOTpeIyNEFIsEgUlL2Lt3z5DXMQhLulnLRjVMgPizn27BwMOWN4xXbxMwdwX96u69AEQRH8iAk4V4vkIkgqkhwnidA2SQKjzYFeW0Satw69uVwDQeijw0PU8hpIkpMgtI/YYQT57humh0Sp2Fm9NiNIH5V014z196maTUuGVt/pUyj1tbUQhHaxGhObFiAlLrkJgq6kGCBCO16XeCCuEpZemavxls2dpKgW1wQCT7B0nbu9a5+bmgiCsjX4sWOwx7CPCB8lhP0SJtvYUREXF2tgYuRyfFUSJuilBFOgdYQtocv+kk4vcaN196iNIOhbw0TxNEmkc5iS4NOdLGSnAbgDakqjUSNBwLaG6BpW5yPDM1K86I1zeuX1aM39a4vtXCtBwLSGnN1ER2SZccyCB2HJYdwyLK0xvbL0Uc0EocE1hMI8PqQwIDXA2ATyE/RgaCni/BTTyNoJQpvIf8G4dEjBkYgcjDXt11jw2EXSCyQdYakkUdniBoh99G6BILSHtX+ilw8tLw8P1iVDK2K4PyYv7KcMnaICO7KHlnJ8isWrFYLQvqNKOsqsAJQVLuYmJ8aCPlA5oraT7SpbDKke7cIxizfHWT3KDHJpSwQBoBcbo3akBJl1eix13y6JX8NahXzhhCPFm/NaFSjJD8vjSzo9WdrcGkFoK0OtIytKeM9CAjvdWOxaIopY+nFRWZZMMWiEGFdIXXlkfbg4MJdrRlokCODeMYT3rG0zjwh/HVEYiv2w8JMAKbqjphi7uMgyvMPQsilplSCAvGt4kzyjUsRx7sG/AgtZgnh/OrGemKjgHovR423C55JBIjZtDpYRkANvxeakZYJ0YBNihyFX7emLibaI/wabcpw5SJpJXm9M1zlz4CB0lXBcOZyx0WJDj4M5BecW8pm/KZCjuCdgKiaOgSBgccuw/Npiwp5UfVlTPczL+NGyZLuqoj1jIUgH5qFhlavVPHtVPBRGJSAF5LDkSjSqkK742AgCMrjxslKCv4VLOQTIssteFefRyBgJ0nXOweFtsu9oeqvOhoxmOLUI3jEThPYSEodVLjamalzhqfOR30wrFhQYTnGcv1mR9q4aO0G6HmFJlA1GJ0qaZxTbOFykqzcVsTZ3KgRxoliflG3lMf3njcHexiRkagSZJwrLwj5HWf2oXxpiBZBGryZTmiIEnSpBZsEl6SZm15CF3XmXbQgQsZFkpATSSB2grhmMnSD/31XYLkEUjpojnOd8uNjt70hxUs4btVK3E2RxT+FURL5xMhm1kHHJ8rx9N3htkrGJIdS5lsrGVtYJsr5HidHUkeVu6y9v4gribeHKDCk4QxKXBQg4Qfo9FqRI5q2Cuyom93v1Kz7Y1ReGQGxnBFIQYtRlAwScIBuAtOISMsLeWRJvGdIG7GOrLllpdrchAab2kILwpaxGufREwAnSE7A1l+PSygSfNHO8XTh3x55pbyUm1ATYmz+IZ8v/XBIg4ARJAOKGVewWyILJC5+XHZeTdPGKA98KCDDGOF0bQlnuMidIOaz9Tg0i4ARpsNNc5XIIOEHKYe13ahABJ0iDneYql0PACVIOa79Tgwg4QRrsNFe5HAJOkHJY+50aRMAJ0mCnucrlEHCClMPa79QgAk6QBjvNVS6HgBOkHNZ+pwYRcII02GmucjkEnCDlsPY7NYiAE6TBTnOVyyHgBCmHtd+pQQScIA12mqtcDgEnSDms/U4NIuAEabDTXOVyCPwfScDST3bgOVoAAAAASUVORK5CYII=;fontStyle=1" parent="1" vertex="1">
          <mxGeometry x="570" y="680" width="40" height="40" as="geometry" />
        </mxCell>
        <mxCell id="yaoMZKG-VxOtJUJC3bOf-24" value="&lt;b&gt;&lt;font style=&quot;font-size: 15px;&quot; color=&quot;#ff0000&quot;&gt;4路POE中继器（网线供电）&lt;/font&gt;&lt;/b&gt;" style="shape=mxgraph.cisco.hubs_and_gateways.small_hub;sketch=0;html=1;pointerEvents=1;dashed=0;fillColor=#036897;strokeColor=#ffffff;strokeWidth=2;verticalLabelPosition=bottom;verticalAlign=top;align=center;outlineConnect=0;" parent="1" vertex="1">
          <mxGeometry x="304" y="760" width="116" height="35" as="geometry" />
        </mxCell>
        <mxCell id="yaoMZKG-VxOtJUJC3bOf-26" value="" style="endArrow=classic;html=1;rounded=0;entryX=0.5;entryY=0;entryDx=0;entryDy=0;exitX=0.5;exitY=0.98;exitDx=0;exitDy=0;exitPerimeter=0;dashed=1;strokeColor=#FF0000;" parent="1" source="yaoMZKG-VxOtJUJC3bOf-3" target="yaoMZKG-VxOtJUJC3bOf-23" edge="1">
          <mxGeometry width="50" height="50" relative="1" as="geometry">
            <mxPoint x="317.5" y="618.8" as="sourcePoint" />
            <mxPoint x="500" y="690" as="targetPoint" />
            <Array as="points">
              <mxPoint x="590" y="640" />
            </Array>
          </mxGeometry>
        </mxCell>
        <mxCell id="yaoMZKG-VxOtJUJC3bOf-27" value="" style="endArrow=classic;html=1;rounded=0;exitX=0.5;exitY=0.98;exitDx=0;exitDy=0;exitPerimeter=0;strokeColor=#FF0000;strokeWidth=2;" parent="1" source="yaoMZKG-VxOtJUJC3bOf-3" target="yaoMZKG-VxOtJUJC3bOf-24" edge="1">
          <mxGeometry width="50" height="50" relative="1" as="geometry">
            <mxPoint x="317.5" y="618.8" as="sourcePoint" />
            <mxPoint x="500" y="690" as="targetPoint" />
            <Array as="points">
              <mxPoint x="360" y="640" />
            </Array>
          </mxGeometry>
        </mxCell>
        <mxCell id="yaoMZKG-VxOtJUJC3bOf-28" value="" style="endArrow=classic;html=1;rounded=0;exitX=0.5;exitY=1;exitDx=0;exitDy=0;exitPerimeter=0;strokeColor=#FF0000;entryX=0.5;entryY=0.25;entryDx=0;entryDy=0;entryPerimeter=0;strokeWidth=2;" parent="1" source="yaoMZKG-VxOtJUJC3bOf-24" target="yaoMZKG-VxOtJUJC3bOf-20" edge="1">
          <mxGeometry width="50" height="50" relative="1" as="geometry">
            <mxPoint x="317.5" y="618.8" as="sourcePoint" />
            <mxPoint x="371.74545454545455" y="770" as="targetPoint" />
            <Array as="points">
              <mxPoint x="240" y="800" />
            </Array>
          </mxGeometry>
        </mxCell>
        <mxCell id="yaoMZKG-VxOtJUJC3bOf-29" value="" style="endArrow=classic;html=1;rounded=0;exitX=0.5;exitY=1;exitDx=0;exitDy=0;exitPerimeter=0;strokeColor=#FF0000;entryX=0.5;entryY=0;entryDx=0;entryDy=0;strokeWidth=2;" parent="1" source="yaoMZKG-VxOtJUJC3bOf-24" target="yaoMZKG-VxOtJUJC3bOf-22" edge="1">
          <mxGeometry width="50" height="50" relative="1" as="geometry">
            <mxPoint x="372" y="805" as="sourcePoint" />
            <mxPoint x="280" y="870" as="targetPoint" />
            <Array as="points" />
          </mxGeometry>
        </mxCell>
        <mxCell id="yaoMZKG-VxOtJUJC3bOf-30" value="" style="endArrow=classic;html=1;rounded=0;exitX=0.5;exitY=1;exitDx=0;exitDy=0;exitPerimeter=0;strokeColor=#FF0000;entryX=0.5;entryY=0;entryDx=0;entryDy=0;strokeWidth=2;" parent="1" source="yaoMZKG-VxOtJUJC3bOf-24" target="yaoMZKG-VxOtJUJC3bOf-21" edge="1">
          <mxGeometry width="50" height="50" relative="1" as="geometry">
            <mxPoint x="382" y="815" as="sourcePoint" />
            <mxPoint x="290" y="880" as="targetPoint" />
            <Array as="points">
              <mxPoint x="500" y="810" />
            </Array>
          </mxGeometry>
        </mxCell>
        <mxCell id="yaoMZKG-VxOtJUJC3bOf-31" value="" style="endArrow=classic;html=1;rounded=0;exitX=0.5;exitY=1;exitDx=0;exitDy=0;exitPerimeter=0;strokeColor=#FF0000;strokeWidth=2;" parent="1" source="yaoMZKG-VxOtJUJC3bOf-24" edge="1">
          <mxGeometry width="50" height="50" relative="1" as="geometry">
            <mxPoint x="392" y="825" as="sourcePoint" />
            <mxPoint x="590" y="720" as="targetPoint" />
            <Array as="points">
              <mxPoint x="590" y="795" />
            </Array>
          </mxGeometry>
        </mxCell>
        <mxCell id="yaoMZKG-VxOtJUJC3bOf-32" value="" style="strokeWidth=2;html=1;shape=mxgraph.flowchart.annotation_2;align=left;labelPosition=right;pointerEvents=1;rotation=-90;strokeColor=#FF0000;" parent="1" vertex="1">
          <mxGeometry x="347.5" y="776.5" width="50" height="275" as="geometry" />
        </mxCell>
        <mxCell id="yaoMZKG-VxOtJUJC3bOf-33" value="&lt;font style=&quot;font-size: 15px;&quot; color=&quot;#ff0000&quot;&gt;&lt;b&gt;新增加的摄像头点位&lt;/b&gt;&lt;/font&gt;" style="text;html=1;align=center;verticalAlign=middle;resizable=0;points=[];autosize=1;strokeColor=none;fillColor=none;" parent="1" vertex="1">
          <mxGeometry x="292.5" y="930" width="160" height="30" as="geometry" />
        </mxCell>
        <mxCell id="yaoMZKG-VxOtJUJC3bOf-34" value="&lt;b&gt;&lt;font style=&quot;font-size: 15px;&quot;&gt;需求说明：&lt;/font&gt;&lt;/b&gt;&lt;br&gt;&lt;b&gt;&lt;font style=&quot;font-size: 11px;&quot;&gt;1、如上图所示，有一原始NVR视频监控环境。&lt;br&gt;2、现在在它的基础上实现新增3个点位。&lt;br&gt;3、初步方案是取其中某个点位作为节点，为新增的三个点位添加中继节点。&lt;br&gt;4、对中继节点的需求就是无外接电源的情况下，让网线给中继器提供电源，&lt;br&gt;&amp;nbsp; &amp;nbsp; &amp;nbsp; 实现为新增3个摄像头提供视频数据传输及电源能力&lt;/font&gt;&lt;/b&gt;" style="text;html=1;align=left;verticalAlign=middle;resizable=0;points=[];autosize=1;strokeColor=none;fillColor=none;" parent="1" vertex="1">
          <mxGeometry x="40" y="960" width="430" height="100" as="geometry" />
        </mxCell>
        <mxCell id="yaoMZKG-VxOtJUJC3bOf-35" value="" style="verticalLabelPosition=bottom;verticalAlign=top;html=1;shape=mxgraph.flowchart.parallel_mode;pointerEvents=1;strokeColor=#FF0000;fontSize=11;fontColor=#FF0000;" parent="1" vertex="1">
          <mxGeometry x="238" y="690" width="45" height="20" as="geometry" />
        </mxCell>
      </root>
    </mxGraphModel>
  </diagram>
</mxfile>
